<svg width="258" height="191" viewBox="0 0 258 191" fill="none" xmlns="http://www.w3.org/2000/svg">
<g clip-path="url(#clip0)">
<path opacity="0.1" d="M51.1585 28.0863C49.8218 29.7043 49.3071 31.9794 48.7314 34.1181C44.0968 51.3548 32.6762 65.2191 19.6701 75.1221C14.1623 79.3169 7.45676 84.9424 8.66176 92.4634C9.3106 96.5025 12.1572 99.4758 14.272 102.766C18.709 109.654 20.1482 119.017 18.0334 127.263C15.6283 136.645 8.90568 145.4 10.9864 154.887C12.2694 160.726 16.6259 164.882 20.8141 168.454C27.3481 174.023 34.0902 179.24 41.0404 184.104C45.6994 187.365 50.656 190.538 56.0858 190.951C60.8667 191.316 65.5501 189.504 70.0895 187.715C74.0557 186.151 78.122 184.523 81.3247 181.389C83.4152 179.343 85.0812 176.703 87.4034 175.029C92.8575 171.097 99.8631 173.588 106.117 175.272C120.875 179.223 136.669 177.781 150.712 171.199C172.253 161.101 188.671 139.896 209.742 128.518C218.801 123.625 228.656 120.589 237.044 114.287C241.77 110.699 245.832 106.315 249.045 101.332C255.388 91.5729 258.817 79.1296 257.827 66.9491C256.836 54.7685 251.287 43.0309 242.572 36.1547C233.242 28.7943 221.458 27.4196 210.842 23.0009C199.88 18.4363 190.128 10.5917 179.271 5.69369C170.485 1.74138 160.924 -0.198791 151.289 0.0155174C141.654 0.229826 132.19 2.59318 123.59 6.93217C111.774 12.8935 99.7972 26.8015 86.6374 27.8575C77.2609 28.5875 58.4811 19.2246 51.1585 28.0863Z" fill="#FFB9B9"/>
<path d="M205.41 109.084C205.41 109.084 209.678 117.442 206.2 122.014C202.722 126.586 206.517 139.047 206.517 139.047" stroke="#FFB9B9" stroke-miterlimit="10"/>
<path d="M206.673 106.484C206.673 108.094 205.488 109.403 205.488 109.403C205.488 109.403 204.302 108.097 204.302 106.484C204.302 104.87 205.488 103.564 205.488 103.564C205.488 103.564 206.673 104.873 206.673 106.484Z" fill="#FFB9B9"/>
<path d="M207.622 109.084C207.622 109.084 203.353 117.442 206.832 122.014C210.31 126.586 206.515 139.047 206.515 139.047" stroke="#FFB9B9" stroke-miterlimit="10"/>
<path d="M206.358 106.484C206.358 108.094 207.544 109.403 207.544 109.403C207.544 109.403 208.729 108.097 208.729 106.484C208.729 104.87 207.544 103.564 207.544 103.564C207.544 103.564 206.358 104.873 206.358 106.484Z" fill="#FFB9B9"/>
<path opacity="0.1" d="M206.358 106.484C206.358 108.094 207.544 109.403 207.544 109.403C207.544 109.403 208.729 108.097 208.729 106.484C208.729 104.87 207.544 103.564 207.544 103.564C207.544 103.564 206.358 104.873 206.358 106.484Z" fill="black"/>
<path d="M209.361 109.084C209.361 109.084 213.63 117.442 210.152 122.014C206.673 126.586 210.469 139.047 210.469 139.047" stroke="#FFB9B9" stroke-miterlimit="10"/>
<path d="M210.625 106.484C210.625 108.094 209.439 109.403 209.439 109.403C209.439 109.403 208.254 108.097 208.254 106.484C208.254 104.87 209.439 103.564 209.439 103.564C209.439 103.564 210.625 104.873 210.625 106.484Z" fill="#FFB9B9"/>
<path d="M209.961 113.18C208.842 114.34 207.078 114.462 207.078 114.462C207.078 114.462 207.132 112.7 208.251 111.542C209.371 110.384 211.135 110.26 211.135 110.26C211.135 110.26 211.081 112.019 209.961 113.18Z" fill="#FFB9B9"/>
<path d="M210.074 118.946C208.954 120.107 207.19 120.228 207.19 120.228C207.19 120.228 207.244 118.467 208.364 117.309C209.483 116.15 211.247 116.026 211.247 116.026C211.247 116.026 211.203 117.783 210.074 118.946Z" fill="#FFB9B9"/>
<path d="M204 122.117C205.058 123.333 205.022 125.095 205.022 125.095C205.022 125.095 203.268 124.883 202.209 123.666C201.151 122.45 201.187 120.688 201.187 120.688C201.187 120.688 202.941 120.9 204 122.117Z" fill="#FFB9B9"/>
<path d="M204.983 109.822C206.329 110.712 206.766 112.42 206.766 112.42C206.766 112.42 205.019 112.686 203.673 111.795C202.327 110.904 201.89 109.196 201.89 109.196C201.89 109.196 203.641 108.931 204.983 109.822Z" fill="#FFB9B9"/>
<path opacity="0.1" d="M204.983 109.822C206.329 110.712 206.766 112.42 206.766 112.42C206.766 112.42 205.019 112.686 203.673 111.795C202.327 110.904 201.89 109.196 201.89 109.196C201.89 109.196 203.641 108.931 204.983 109.822Z" fill="black"/>
<path d="M211.574 109.084C211.574 109.084 207.3 117.442 210.783 122.022C214.266 126.601 210.466 139.054 210.466 139.054" stroke="#FFB9B9" stroke-miterlimit="10"/>
<path d="M210.31 106.484C210.31 108.094 211.496 109.403 211.496 109.403C211.496 109.403 212.681 108.097 212.681 106.484C212.681 104.87 211.496 103.564 211.496 103.564C211.496 103.564 210.31 104.873 210.31 106.484Z" fill="#FFB9B9"/>
<path opacity="0.1" d="M210.31 106.484C210.31 108.094 211.496 109.403 211.496 109.403C211.496 109.403 212.681 108.097 212.681 106.484C212.681 104.87 211.496 103.564 211.496 103.564C211.496 103.564 210.31 104.873 210.31 106.484Z" fill="black"/>
<path d="M210.652 113.304C209.517 114.452 209.432 116.223 209.432 116.223C209.432 116.223 211.195 116.124 212.33 114.975C213.464 113.827 213.549 112.055 213.549 112.055C213.549 112.055 211.783 112.155 210.652 113.304Z" fill="#FFB9B9"/>
<path opacity="0.1" d="M210.652 113.304C209.517 114.452 209.432 116.223 209.432 116.223C209.432 116.223 211.195 116.124 212.33 114.975C213.464 113.827 213.549 112.055 213.549 112.055C213.549 112.055 211.783 112.155 210.652 113.304Z" fill="black"/>
<path d="M212.874 121.292C211.739 122.44 211.654 124.211 211.654 124.211C211.654 124.211 213.418 124.112 214.552 122.963C215.686 121.815 215.771 120.043 215.771 120.043C215.771 120.043 214.008 120.138 212.874 121.292Z" fill="#FFB9B9"/>
<path d="M209.603 119.533C209.603 119.533 212.171 115.494 215.779 115.396" stroke="#FFB9B9" stroke-miterlimit="10"/>
<path d="M207.602 117.092C207.602 117.092 205.034 113.053 201.426 112.956" stroke="#FFB9B9" stroke-miterlimit="10"/>
<path d="M207.268 122.859C207.268 122.859 209.837 118.82 213.445 118.722" stroke="#FFB9B9" stroke-miterlimit="10"/>
<path d="M215.662 116.038C216.03 116.038 216.328 115.741 216.328 115.374C216.328 115.007 216.03 114.71 215.662 114.71C215.294 114.71 214.996 115.007 214.996 115.374C214.996 115.741 215.294 116.038 215.662 116.038Z" fill="#FFB9B9"/>
<path d="M201.49 113.654C201.858 113.654 202.156 113.357 202.156 112.99C202.156 112.623 201.858 112.325 201.49 112.325C201.122 112.325 200.824 112.623 200.824 112.99C200.824 113.357 201.122 113.654 201.49 113.654Z" fill="#FFB9B9"/>
<path d="M209.159 124.19C209.159 124.19 206.59 120.151 202.983 120.053" stroke="#FFB9B9" stroke-miterlimit="10"/>
<path d="M203.046 120.752C203.414 120.752 203.712 120.454 203.712 120.087C203.712 119.721 203.414 119.423 203.046 119.423C202.678 119.423 202.38 119.721 202.38 120.087C202.38 120.454 202.678 120.752 203.046 120.752Z" fill="#FFB9B9"/>
<path d="M213.493 119.421C213.861 119.421 214.159 119.123 214.159 118.756C214.159 118.389 213.861 118.092 213.493 118.092C213.126 118.092 212.827 118.389 212.827 118.756C212.827 119.123 213.126 119.421 213.493 119.421Z" fill="#FFB9B9"/>
<path d="M223.36 134.188C223.36 134.188 217.169 132.951 215.518 131.304C213.867 129.657 206.437 126.783 205.612 128.835C204.788 130.886 194.467 137.893 201.485 139.129C208.503 140.365 217.996 140.777 220.06 139.952C222.123 139.127 223.36 134.188 223.36 134.188Z" fill="#A8A8A8"/>
<path opacity="0.2" d="M201.482 138.37C208.5 139.606 217.994 140.018 220.057 139.193C221.628 138.565 222.721 135.543 223.153 134.151L223.36 134.195C223.36 134.195 222.121 139.137 220.057 139.959C217.994 140.782 208.5 140.37 201.482 139.137C199.458 138.779 198.877 137.942 199.097 136.884C199.27 137.572 199.982 138.105 201.482 138.37Z" fill="black"/>
<path d="M16.404 143.108C16.404 143.108 18.4481 145.784 15.46 149.799C12.4719 153.814 10.0082 157.223 11.0059 159.736C11.0059 159.736 15.5136 152.259 19.1823 152.154C22.8509 152.05 20.4385 147.604 16.404 143.108Z" fill="#FFB9B9"/>
<path opacity="0.1" d="M16.4041 143.108C16.5822 143.366 16.7226 143.647 16.8212 143.945C20.402 148.139 22.3071 152.054 18.8677 152.154C15.6625 152.247 11.8183 157.962 10.8962 159.408C10.9267 159.519 10.9633 159.629 11.006 159.736C11.006 159.736 15.5137 152.259 19.1824 152.154C22.851 152.05 20.4386 147.604 16.4041 143.108Z" fill="black"/>
<path d="M20.2093 146.504C20.2093 147.444 20.1044 148.208 19.9654 148.208C19.8263 148.208 19.7214 147.446 19.7214 146.504C19.7214 145.563 19.8532 146.018 19.9824 146.018C20.1117 146.018 20.2093 145.568 20.2093 146.504Z" fill="#FFD037"/>
<path d="M21.5069 147.626C20.68 148.076 19.9604 148.356 19.8994 148.232C19.8384 148.108 20.4556 147.66 21.2825 147.212C22.1094 146.765 21.7825 147.091 21.8459 147.212C21.9094 147.334 22.3338 147.176 21.5069 147.626Z" fill="#FFD037"/>
<path d="M5.60537 143.108C5.60537 143.108 3.56128 145.784 6.54936 149.799C9.53745 153.814 12.0011 157.223 11.0034 159.734C11.0034 159.734 6.4957 152.256 2.82706 152.152C-0.84158 152.047 1.57084 147.604 5.60537 143.108Z" fill="#FFB9B9"/>
<path opacity="0.1" d="M5.6053 143.108C5.42718 143.366 5.28673 143.647 5.18819 143.945C1.6098 148.139 -0.297692 152.054 3.13434 152.152C6.33952 152.244 10.1838 157.96 11.1058 159.405C11.0754 159.517 11.0388 159.626 10.9961 159.734C10.9961 159.734 6.48831 152.256 2.81967 152.152C-0.848964 152.047 1.57078 147.604 5.6053 143.108Z" fill="black"/>
<path d="M1.80737 146.504C1.80737 147.444 1.91226 148.208 2.0513 148.208C2.19034 148.208 2.29522 147.446 2.29522 146.504C2.29522 145.563 2.1635 146.018 2.03422 146.018C1.90494 146.018 1.80737 145.568 1.80737 146.504Z" fill="#FFD037"/>
<path d="M0.502439 147.626C1.32935 148.076 2.04893 148.356 2.10991 148.232C2.17089 148.108 1.55376 147.66 0.72685 147.212C-0.100058 146.765 0.226803 147.091 0.163383 147.212C0.0999619 147.334 -0.324469 147.176 0.502439 147.626Z" fill="#FFD037"/>
<path d="M2.4563 159.383C2.4563 159.383 8.17147 159.208 9.89359 157.984C11.6157 156.76 18.6749 155.307 19.1115 157.254C19.5482 159.201 27.7001 167.013 21.2483 167.065C14.7965 167.116 6.25666 166.062 4.53942 165.026C2.82219 163.989 2.4563 159.383 2.4563 159.383Z" fill="#A8A8A8"/>
<path opacity="0.2" d="M21.3654 166.391C14.9136 166.442 6.37375 165.388 4.65407 164.345C3.34419 163.549 2.82219 160.695 2.649 159.378H2.45874C2.45874 159.378 2.81975 163.977 4.53942 165.021C6.2591 166.065 14.7989 167.121 21.2508 167.067C23.1144 167.053 23.7559 166.391 23.7217 165.413C23.4632 166.011 22.7509 166.379 21.3654 166.391Z" fill="black"/>
<path d="M166.389 122.593C163.859 122.592 161.339 122.913 158.891 123.547L149.897 95.8577L149.78 95.4975L150.546 95.2737C152.351 91.3149 147.538 90.7212 147.538 90.7212L147.133 90.8575C144.589 90.1275 140.182 89.7406 135.608 89.5606V84.0324C135.619 81.0006 136.169 77.9947 137.23 75.1537C137.359 74.8058 137.474 74.4797 137.562 74.1683C137.581 74.105 137.601 74.0417 137.618 73.9809L137.65 73.8665C137.672 73.7862 137.696 73.7035 137.715 73.6232C137.735 73.5429 137.745 73.5113 137.757 73.4529C137.769 73.3945 137.786 73.3385 137.798 73.2826L137.815 73.2023C137.835 73.1196 137.852 73.0393 137.869 72.959C137.869 72.9249 137.881 72.8908 137.889 72.8568C137.896 72.8227 137.915 72.7205 137.928 72.6524C137.94 72.5843 137.942 72.5599 137.95 72.5137C137.957 72.4675 137.967 72.4115 137.974 72.3628C137.981 72.3142 137.974 72.2996 137.986 72.2679C137.998 72.2363 138.003 72.1487 138.011 72.0903V72.0441C138.011 71.9735 138.028 71.903 138.033 71.8348C138.037 71.7667 138.033 71.774 138.033 71.7424C138.033 71.7107 138.033 71.6426 138.033 71.594C138.033 71.5453 138.033 71.5453 138.033 71.521C138.033 71.4966 138.033 71.4188 138.033 71.3677C138.033 71.3166 138.033 71.2655 138.033 71.2168C138.033 71.1681 138.033 71.1779 138.033 71.1584C138.033 71.1389 138.033 71.0781 138.033 71.0392C138.033 71.0003 138.033 70.9881 138.033 70.9662C138.033 70.9443 138.033 70.9078 138.033 70.8786C138.033 70.8494 138.033 70.8178 138.033 70.7886C138.033 70.7594 138.033 70.7302 138.033 70.701C138.033 70.6718 138.033 70.6499 138.033 70.6255C137.938 69.6843 137.925 68.7368 137.993 67.7933L138.335 63.5304C139.34 63.2235 140.277 62.728 141.096 62.0705C141.096 62.0705 141.313 55.7126 141.967 50.6807C142.388 47.5507 142.008 44.3654 140.864 41.4208C139.72 38.4762 137.848 35.8679 135.423 33.8383C134.983 33.4757 134.527 33.1278 134.052 32.8041C134.142 32.46 134.21 32.1106 134.257 31.7579C134.474 31.3603 134.734 30.9874 135.032 30.6459C135.442 30.242 136.008 30.0109 136.476 29.6726C137.498 28.9111 137.94 27.6701 138.233 26.4827C138.833 24.0496 139.006 21.4047 137.989 19.0883C136.971 16.7719 134.498 14.8813 131.808 15.003C130.983 15.0395 130.178 15.2463 129.368 15.3412C127.227 15.5577 125.107 14.8546 122.958 14.7256C122.335 14.6494 121.703 14.7331 121.121 14.9689C120.685 15.2072 120.307 15.5398 120.016 15.9422C119.033 17.2119 118.358 18.692 118.045 20.266C117.782 21.4509 117.782 22.5239 116.311 22.6991C114.655 22.906 109.34 21.7964 110.457 25.2905C110.991 26.9426 113.555 26.9937 114.869 28.2103C115.552 28.8429 115.867 29.7773 116.618 30.3418L116.648 30.3612C113.233 30.4123 107.596 31.7603 104.273 39.3007C99.263 50.6783 96.2554 54.3865 92.2453 57.3574C88.4303 60.1823 86.6569 69.28 86.4935 70.1511C85.4373 72.8105 84.8616 77.694 88.2351 85.8013C91.0939 92.6751 93.582 97.3541 95.3358 100.87L94.9919 100.838C94.2601 100.783 93.5321 100.686 92.8112 100.549C89.9841 100.014 82.859 98.8943 80.9418 100.792C78.5342 103.167 79.3367 107.325 85.7544 107.919C87.2219 108.042 88.6954 108.076 90.167 108.021V118.447L90.028 118.532C88.7718 119.279 87.5619 119.949 86.7472 120.389L86.4496 120.55C86.2146 120.164 86.0185 119.757 85.8642 119.333L79.2392 123.679L82.5273 126.401L79.1831 129.849C79.0782 129.757 78.9757 129.662 78.8708 129.569C73.502 124.989 66.6655 122.479 59.6007 122.494C43.3187 122.494 30.1223 135.523 30.1223 151.595C30.1223 167.666 43.3211 180.695 59.6007 180.695C74.1826 180.695 86.291 170.233 88.6596 156.514C94.2699 156.931 99.485 157.057 102.91 156.558V159.911H117.943V155.858L118.318 155.833C125.083 155.347 121.575 152.371 121.575 152.371C120.024 152.371 118.316 151.509 117.116 150.758C116.694 150.492 116.26 150.251 115.816 150.028C116.223 148.586 116.099 147.046 115.467 145.687L149.756 110.406L154.995 124.859L154.646 125.002C144.209 129.479 136.908 139.75 136.908 151.704C136.908 167.778 150.107 180.805 166.386 180.805C182.666 180.805 195.867 167.766 195.867 151.706C195.867 135.647 182.664 122.593 166.389 122.593ZM167.96 173.51L166.74 154.729C166.966 154.697 167.187 154.641 167.401 154.563L177.475 170.595C174.564 172.27 171.311 173.267 167.96 173.51ZM148.297 164.537L163.725 153.497L163.754 153.536L157.427 171.758C153.796 170.201 150.645 167.709 148.297 164.537ZM176.739 132.192L168.272 148.891C167.876 148.524 167.394 148.263 166.869 148.132L166.665 147.502L167.247 129.642C170.562 129.777 173.804 130.648 176.739 132.19V132.192ZM166.218 146.11L161.062 130.239C162.773 129.832 164.527 129.627 166.286 129.628H166.755L166.218 146.11ZM157.051 131.601C157.166 131.55 157.295 131.504 157.398 131.453L163.759 149.03C163.508 149.285 163.302 149.582 163.15 149.906L146.841 140.879C147.454 139.808 148.157 138.791 148.941 137.837L150.761 135.864C152.597 134.094 154.725 132.653 157.051 131.601ZM146.624 141.312L163.001 150.378C162.927 150.646 162.889 150.923 162.889 151.2C162.889 151.242 162.889 151.283 162.889 151.324L144.043 150.994C144.131 147.611 145.011 144.296 146.614 141.314L146.624 141.312ZM169.487 151.256L187.542 145.044C188.502 148.091 188.78 151.31 188.357 154.476C187.933 157.641 186.818 160.675 185.091 163.364L169.021 153.254C169.336 152.758 169.505 152.184 169.509 151.597C169.504 151.484 169.494 151.371 169.477 151.259L169.487 151.256ZM187.396 144.572L169.392 150.767C169.211 150.245 168.965 149.747 168.66 149.285L177.197 132.426C181.982 135.081 185.611 139.408 187.386 144.575L187.396 144.572ZM145.004 97.2957L146.27 100.785L124.434 107.496L124.207 102.997L136.647 99.3468C136.673 99.6252 136.656 99.9059 136.596 100.179C136.91 99.8504 137.193 99.4936 137.442 99.1133L144.862 96.938L145.004 97.2957ZM61.1716 173.406L59.952 154.67C60.1987 154.666 60.4442 154.635 60.6837 154.575L70.6847 170.505C67.7732 172.175 64.5212 173.166 61.1716 173.406ZM41.5088 164.437L56.9371 153.41L56.9663 153.449L50.6389 171.659C47.0077 170.101 43.8567 167.609 41.5088 164.437ZM37.2474 150.894C37.337 147.511 38.2192 144.196 39.8232 141.215L56.4785 150.434C56.3886 150.688 56.332 150.952 56.3102 151.22L37.2474 150.894ZM69.9505 132.093L62.2351 147.327L61.0545 148.543C60.6863 148.402 60.2952 148.33 59.9007 148.329H59.8544L60.4569 129.545C63.772 129.679 67.0153 130.55 69.9505 132.093ZM77.3317 138.346C78.7408 140.202 79.8426 142.271 80.5954 144.475L64.3768 150.054L77.3317 138.346ZM63.4401 150.901L80.7588 144.947C80.9214 145.484 81.071 146.03 81.2076 146.585C81.2369 146.711 81.2637 146.828 81.2906 146.962C73.5069 148.575 66.2477 150.356 63.2108 151.118L63.4401 150.901ZM59.3519 148.337C58.8685 148.356 58.3958 148.484 57.9689 148.711L51.4097 131.024C53.9902 130.032 56.7326 129.525 59.4983 129.528C59.6544 129.528 59.8105 129.528 59.9666 129.528L59.3519 148.337ZM57.5298 148.993C57.1785 149.259 56.8861 149.595 56.6712 149.979L40.0647 140.779C40.677 139.706 41.3787 138.686 42.1625 137.73L43.987 135.75C45.9998 133.813 48.3598 132.271 50.9438 131.205L57.5298 148.993ZM81.3174 155.843C80.7806 158.481 79.7566 160.997 78.2976 163.262L62.5254 153.339C65.7428 153.85 73.3142 154.994 81.3174 155.843ZM88.3595 145.186C87.3819 140.913 85.4416 136.919 82.6858 133.506L83.4591 132.808L90.1817 139.356V145.263C89.606 145.362 89.0263 145.465 88.4425 145.57C88.4156 145.441 88.3912 145.315 88.362 145.188L88.3595 145.186ZM90.1817 132.75L90.0353 132.608L90.1817 132.728V132.75ZM95.3968 124.177L95.4139 124.165L95.7822 123.922L95.9456 123.812L96.1261 123.693L96.331 123.559L96.5213 123.438L96.753 123.289L96.9457 123.168L97.2287 122.993L97.4019 122.885L97.7043 122.703C97.8241 123.807 98.1 124.888 98.5239 125.915L98.619 134.633C97.2047 133.047 96.1106 131.204 95.3968 129.204V124.177ZM123.353 85.9765C123.946 86.5021 124.329 86.8281 124.329 86.8281C124.329 86.8281 125.585 87.9571 127.014 89.417C125.744 89.417 124.563 89.417 123.526 89.4438L123.353 85.9765ZM123.79 94.6508C125.826 94.7214 128.476 94.7919 131.295 94.8114C131.315 94.8722 131.334 94.933 131.347 94.989C131.922 95.1665 132.486 95.3827 133.032 95.6362L123.992 98.6972L123.79 94.6508ZM126.087 78.6648C126.087 78.6648 124.226 73.7984 121.955 70.1194C123.153 66.6205 125.385 62.9197 129.554 61.2797L129.524 61.613L129.51 61.7931C129.378 63.3284 129.227 65.1995 129.098 67.1218V67.2337C129.083 67.4624 129.067 67.6919 129.051 67.9223V68.0415L129.034 68.3238L129.017 68.6011L129.002 68.8445C128.993 69.0067 128.983 69.1689 128.973 69.3311V69.4698C128.973 69.6093 128.966 69.7488 128.951 69.8883V70.0513C128.943 70.2135 128.935 70.3806 128.927 70.5526V70.5817C128.917 70.7683 128.909 70.9532 128.902 71.1365V71.2192C128.902 71.3815 128.896 71.5502 128.883 71.7253V71.7643C128.868 72.1357 128.857 72.4983 128.849 72.8519V72.8908C128.849 73.2436 128.834 73.5843 128.829 73.9128V73.942C128.829 74.2729 128.829 74.5892 128.829 74.8885C128.829 75.0329 128.829 75.174 128.829 75.3119V75.3386C128.829 75.6111 128.846 75.8666 128.861 76.1026V76.1464C128.876 76.3752 128.895 76.5868 128.917 76.7742V76.818C128.927 76.8975 128.937 76.9729 128.949 77.0443V77.0832C128.963 77.1611 128.976 77.2365 128.993 77.3022V77.329C129.005 77.3849 129.019 77.436 129.034 77.4823L129.046 77.5236C129.062 77.571 129.081 77.6174 129.102 77.6623C129.52 78.4847 129.72 81.0152 129.81 83.6942C127.661 80.9252 126.085 78.6599 126.085 78.6599L126.087 78.6648ZM95.3968 144.057V137.042L98.6751 139.752L98.7215 144.061C97.6726 144.164 96.5579 144.305 95.3944 144.456L95.3968 144.057ZM95.3968 107.627C96.2456 107.52 97.0799 107.384 97.8873 107.252C98.0076 107.854 98.0535 108.469 98.0239 109.082V112.793H98.1922C97.2265 113.403 96.2934 114.063 95.3968 114.771V107.629V107.627ZM74.1899 134.998L63.406 146.11L70.3871 132.326C71.6225 133.012 72.7896 133.814 73.8728 134.72C73.9826 134.81 74.085 134.918 74.1899 134.998ZM37.2401 151.497C37.2401 151.461 37.2401 151.424 37.2401 151.388L56.3102 151.724C56.3408 152.164 56.4647 152.593 56.6736 152.981L41.2258 164.035C38.6298 160.368 37.2373 155.987 37.2401 151.497ZM59.5007 173.471C56.6229 173.475 53.7714 172.924 51.1023 171.851L57.3542 153.845C57.9318 154.361 58.677 154.65 59.4519 154.66L60.6716 173.437C60.2837 173.459 59.8934 173.471 59.5007 173.471ZM71.1164 170.24L61.1667 154.407C61.549 154.245 61.896 154.01 62.1888 153.716L78.0195 163.678C76.2205 166.337 73.8655 168.575 71.1164 170.24ZM111.408 142.241C110.831 142.079 110.234 141.997 109.635 141.998H109.435H109.235C108.221 141.995 107.22 142.231 106.315 142.687C105.89 140.073 105.676 136.745 106.625 134.183C107.19 132.635 107.614 131.04 107.893 129.416L109.93 117.927L147.829 105.099L148.292 106.379L111.408 142.241ZM144.028 151.597C144.028 151.561 144.028 151.524 144.028 151.488L162.94 151.821C163.079 152.253 163.251 152.674 163.452 153.081L148.004 164.135C145.412 160.466 144.023 156.086 144.028 151.597ZM166.289 173.571C163.411 173.574 160.56 173.024 157.891 171.951L164.142 153.945C164.72 154.46 165.465 154.75 166.24 154.76L167.46 173.539C167.071 173.561 166.681 173.571 166.289 173.571ZM177.907 170.342L167.86 154.356C168.186 154.175 168.478 153.937 168.723 153.655L184.822 163.78C183.02 166.44 180.66 168.679 177.907 170.342Z" fill="url(#paint0_linear)"/>
<path d="M166.216 174.554L164.689 150.733L164.657 150.682L163.115 151.218L156.02 171.853L144.738 163.873L162.713 150.877L162.73 150.826L162.832 150.789L163.991 149.95L145.15 139.412L140.533 144.473L141.265 149.218L162.925 149.602V150.089L140.855 149.694L140.025 144.315L146.341 137.392L155.785 126.402L155.954 126.857L157.954 124.667L165.403 125.998V125.703L165.891 125.718V126.085L176.956 128.061L166.63 148.658L165.125 149.746V149.867V150.003L188.984 141.711L186.152 163.904L165.906 151.04L165.194 150.641L177.131 169.836L166.216 174.554ZM165.24 151.6L166.667 173.834L176.436 169.605L165.24 151.6ZM145.587 163.873L155.781 171.082L162.449 151.68L145.587 163.873ZM165.667 150.33L166.177 150.614L185.776 163.072L188.41 142.422L165.667 150.33ZM163.935 148.578L164.547 149.563L164.655 149.485L165.386 126.484L158.132 125.185L156.142 127.375L163.935 148.578ZM145.545 139.076L163.801 149.295L163.484 148.777L155.781 127.786L146.707 137.733L145.545 139.076ZM165.881 126.572L165.15 149.125L166.252 148.327L176.231 128.419L165.881 126.572Z" fill="#535461"/>
<path d="M62.2572 174.457L60.7278 150.626L60.6961 150.575L59.1544 151.11L52.0611 171.756L40.7795 163.778L58.7495 150.782L58.7666 150.731L58.869 150.694L60.0277 149.855L41.1869 139.317L36.5718 144.378L37.3036 149.123L58.9691 149.517V150.003L36.8987 149.609L36.0645 144.222L42.3821 137.297L51.8342 126.299L52.0025 126.754L54.0027 124.564L61.4327 125.893V125.599L61.9206 125.613V125.981L72.985 127.956L62.6694 148.543L61.1644 149.631V149.753V149.889L85.0203 141.597L82.1883 163.79L61.9425 150.926L61.2303 150.527L73.168 169.719L62.2572 174.457ZM61.2815 151.502L62.7084 173.737L72.4777 169.508L61.2815 151.502ZM41.626 163.773L51.8196 170.982L58.4885 151.58L41.626 163.773ZM61.7059 150.23L62.2157 150.514L81.8151 162.972L84.4495 142.322L61.7059 150.23ZM59.974 148.478L60.5863 149.463L60.6936 149.385L61.4254 126.384L54.171 125.09L52.1806 127.28L59.974 148.478ZM41.5772 138.974L59.8326 149.193L59.5155 148.675L51.8123 127.684L42.7407 137.628L41.5772 138.974ZM61.9206 126.47L61.1888 149.03L62.2913 148.232L72.2703 128.324L61.9206 126.47Z" fill="#535461"/>
<path d="M94.399 134.872L83.9817 124.618L80.7264 127.908L91.1436 138.163L94.399 134.872Z" fill="#FFB9B9"/>
<path opacity="0.1" d="M94.399 134.872L83.9817 124.618L80.7264 127.908L91.1436 138.163L94.399 134.872Z" fill="black"/>
<path d="M86.4668 119.71C86.4668 119.71 92.5137 116.527 94.8505 114.479C96.2573 113.251 97.7698 112.149 99.3705 111.187L106.957 106.581L122.812 105.364L123.543 108.041C123.543 108.041 124.763 111.934 112.567 115.34C100.371 118.747 94.2724 124.1 94.2724 124.1C94.2724 124.1 86.4668 126.766 86.4668 119.71Z" fill="#DB8B8B"/>
<path opacity="0.1" d="M94.9188 123.572C94.4871 123.9 94.2724 124.09 94.2724 124.09C94.2724 124.09 86.4668 126.766 86.4668 119.71C86.4668 119.71 86.8449 119.511 87.4425 119.177C88.0463 120.158 88.892 120.968 89.899 121.53C90.9059 122.092 92.0405 122.387 93.1943 122.387H94.0212L94.9188 123.572Z" fill="black"/>
<path opacity="0.05" d="M123.314 109.384C122.636 110.817 120.297 113.172 112.567 115.331C102.661 118.097 96.7775 122.143 94.9188 123.572C94.4871 123.9 94.2724 124.09 94.2724 124.09C94.2724 124.09 86.4668 126.767 86.4668 119.71C86.4668 119.71 86.8449 119.511 87.4425 119.177C89.2549 118.187 93.0918 116.014 94.8432 114.469C96.2496 113.241 97.7622 112.139 99.3631 111.177L106.949 106.571L109.774 106.355L122.804 105.354L123.536 108.031C123.536 108.031 123.707 108.554 123.314 109.384Z" fill="black"/>
<path d="M86.5888 118.129L80.1248 122.387L99.0534 138.202C99.0534 138.202 101.834 136.499 100.371 134.553C100.371 134.553 95.4921 130.416 95.2481 124.577L93.7846 122.63H92.9577C91.5594 122.63 90.1956 122.197 89.0547 121.391C87.9138 120.585 87.0522 119.445 86.5888 118.129Z" fill="#ABB1D1"/>
<path opacity="0.1" d="M123.314 109.384C119.411 107.503 109.883 107.301 109.883 107.301L109.781 106.355L122.812 105.354L123.543 108.031C123.543 108.031 123.707 108.554 123.314 109.384Z" fill="black"/>
<path d="M109.884 106.814C109.884 106.814 121.348 107.058 124.275 109.491L122.812 80.0493H106.957L109.884 106.814Z" fill="#ABB1D1"/>
<path opacity="0.05" d="M109.884 106.693C109.884 106.693 121.348 106.936 124.275 109.369L122.812 79.9277H106.957L109.884 106.693Z" fill="black"/>
<path d="M164.974 121.321C162.385 121.318 159.808 121.665 157.313 122.353C156.025 122.707 154.765 123.152 153.541 123.684C147.021 126.503 141.781 131.635 138.834 138.085C135.888 144.536 135.444 151.847 137.59 158.606C139.735 165.364 144.317 171.088 150.449 174.671C156.581 178.254 163.827 179.441 170.786 178.002C177.744 176.564 183.921 172.603 188.121 166.884C192.32 161.166 194.245 154.097 193.521 147.045C192.798 139.993 189.478 133.459 184.205 128.707C178.931 123.956 172.078 121.324 164.972 121.321H164.974ZM164.877 171.467C159.93 171.465 155.132 169.775 151.281 166.677C147.43 163.58 144.756 159.262 143.705 154.44C142.654 149.618 143.288 144.582 145.502 140.169C147.716 135.756 151.376 132.231 155.876 130.18C157.02 129.658 158.209 129.237 159.427 128.922C162.406 128.151 165.516 128.021 168.549 128.542C171.582 129.063 174.469 130.222 177.018 131.942C179.567 133.663 181.719 135.905 183.332 138.519C184.944 141.134 185.98 144.061 186.37 147.107C186.761 150.152 186.496 153.245 185.595 156.18C184.693 159.115 183.175 161.826 181.142 164.13C179.109 166.435 176.607 168.281 173.803 169.546C170.999 170.811 167.957 171.466 164.879 171.467H164.877Z" fill="#535461"/>
<path d="M119.094 88.799C119.094 88.799 147.792 87.8257 148.377 91.5266C148.963 95.2275 119.679 93.6678 119.679 93.6678C119.679 93.6678 117.338 91.3295 119.094 88.799Z" fill="#535461"/>
<path opacity="0.05" d="M119.094 88.799C119.094 88.799 147.792 87.8257 148.377 91.5266C148.963 95.2275 119.679 93.6678 119.679 93.6678C119.679 93.6678 117.338 91.3295 119.094 88.799Z" fill="black"/>
<path d="M95.8627 103.6H90.7866V147.612H95.8627V103.6Z" fill="#FFB9B9"/>
<path opacity="0.1" d="M95.8627 103.598V106.987C94.1748 107.206 92.4478 107.345 90.7866 107.398V103.598H95.8627Z" fill="black"/>
<path d="M95.4823 99.9501C94.7701 99.8951 94.0616 99.8001 93.3602 99.6654C90.6087 99.1398 83.6715 98.0376 81.8054 99.9087C79.4637 102.245 80.2443 106.335 86.4912 106.919C92.7382 107.503 103.476 105.945 105.625 103.607C105.625 103.597 101.739 100.429 95.4823 99.9501Z" fill="#535461"/>
<path d="M94.4968 115.674L147.795 99.1206L149.551 103.211L94.8871 121.905L94.4968 115.674Z" fill="#FFB9B9"/>
<path d="M110.311 141.769L148.77 103.989L150.917 107.104L114.213 145.273L110.311 141.769Z" fill="#FFB9B9"/>
<path opacity="0.1" d="M159.425 128.922C158.206 129.237 157.018 129.657 155.873 130.18L153.542 123.681C154.765 123.149 156.026 122.704 157.313 122.35L159.425 128.922Z" fill="black"/>
<path d="M165.95 148.001L163.218 149.558L144.157 96.4343L143.304 94.0571L147.794 91.5242L148.919 95.0231L165.95 148.001Z" fill="#FFB9B9"/>
<path opacity="0.1" d="M148.919 95.0231L144.157 96.4343L143.304 94.0571L147.794 91.5242L148.919 95.0231Z" fill="black"/>
<path d="M119.875 99.1204L146.621 89.9668C146.621 89.9668 151.307 90.5508 149.548 94.4463L122.609 102.43C122.609 102.43 118.511 102.819 119.875 99.1204Z" fill="#535461"/>
<path d="M89.0133 143.546C88.035 139.21 86.0545 135.162 83.2298 131.725C82.1812 130.448 81.0248 129.263 79.7734 128.183C74.9616 124.039 68.9067 121.606 62.5588 121.265C56.2109 120.925 49.9295 122.697 44.7003 126.303C39.4711 129.909 35.5902 135.145 33.6666 141.188C31.743 147.232 31.8857 153.742 34.0722 159.697C36.2588 165.651 40.3654 170.713 45.7475 174.087C51.1297 177.462 57.4828 178.958 63.8097 178.341C70.1366 177.725 76.0792 175.03 80.7048 170.68C85.3304 166.33 88.3772 160.572 89.367 154.308C89.5973 152.833 89.7131 151.343 89.7133 149.85C89.715 147.729 89.4802 145.615 89.0133 143.546ZM60.9155 171.369C56.4682 171.365 52.1303 169.994 48.4915 167.443C44.8528 164.893 42.0899 161.286 40.5784 157.114C39.067 152.942 38.8804 148.406 40.044 144.125C41.2076 139.843 43.6649 136.023 47.0819 133.183C50.4988 130.344 54.7096 128.623 59.1415 128.255C63.5735 127.887 68.0116 128.889 71.8523 131.125C75.6931 133.362 78.7501 136.724 80.6077 140.755C82.4653 144.786 83.0333 149.289 82.2346 153.653C81.3198 158.627 78.6856 163.124 74.7903 166.361C70.895 169.598 65.9853 171.37 60.9155 171.369Z" fill="#535461"/>
<path opacity="0.1" d="M89.7134 149.85C89.7132 151.343 89.5974 152.833 89.3671 154.308C87.0254 154.14 84.6056 153.896 82.2347 153.653C82.7614 150.76 82.6959 147.79 82.042 144.923C84.352 144.436 86.7107 143.971 89.0134 143.551C89.4799 145.618 89.7147 147.731 89.7134 149.85Z" fill="black"/>
<path opacity="0.1" d="M95.8627 142.434V147.609H90.7866V143.229C92.5429 142.925 94.2504 142.655 95.8627 142.434Z" fill="black"/>
<path d="M63.0645 149.76C63.0645 149.76 104.063 139.054 107.381 143.139C110.698 147.225 114.213 152.68 103.876 154.626C93.5381 156.573 62.2913 151.315 62.2913 151.315L63.0645 149.76Z" fill="#FFB9B9"/>
<path opacity="0.1" d="M83.2297 131.725L78.0195 136.482C77.0968 135.3 76.0537 134.218 74.907 133.251L79.7709 128.182C81.0232 129.263 82.1804 130.448 83.2297 131.725Z" fill="black"/>
<path d="M61.6985 147.612L92.3477 115.674L93.3259 123.073L63.2596 150.531L61.6985 147.612Z" fill="#FFB9B9"/>
<path opacity="0.1" d="M61.3083 152.87C63.034 152.87 64.433 151.474 64.433 149.753C64.433 148.031 63.034 146.636 61.3083 146.636C59.5826 146.636 58.1836 148.031 58.1836 149.753C58.1836 151.474 59.5826 152.87 61.3083 152.87Z" fill="black"/>
<path d="M60.9155 152.87C62.6412 152.87 64.0401 151.474 64.0401 149.753C64.0401 148.031 62.6412 146.636 60.9155 146.636C59.1897 146.636 57.7908 148.031 57.7908 149.753C57.7908 151.474 59.1897 152.87 60.9155 152.87Z" fill="#535461"/>
<path opacity="0.1" d="M164.682 152.578C166.407 152.578 167.806 151.182 167.806 149.461C167.806 147.739 166.407 146.344 164.682 146.344C162.956 146.344 161.557 147.739 161.557 149.461C161.557 151.182 162.956 152.578 164.682 152.578Z" fill="black"/>
<path d="M164.876 152.967C166.602 152.967 168.001 151.571 168.001 149.85C168.001 148.129 166.602 146.733 164.876 146.733C163.151 146.733 161.752 148.129 161.752 149.85C161.752 151.571 163.151 152.967 164.876 152.967Z" fill="#535461"/>
<path opacity="0.1" d="M109.332 152.87C112.782 152.87 115.579 150.08 115.579 146.638C115.579 143.197 112.782 140.407 109.332 140.407C105.882 140.407 103.085 143.197 103.085 146.638C103.085 150.08 105.882 152.87 109.332 152.87Z" fill="black"/>
<path d="M109.725 152.87C113.175 152.87 115.972 150.08 115.972 146.638C115.972 143.197 113.175 140.407 109.725 140.407C106.275 140.407 103.478 143.197 103.478 146.638C103.478 150.08 106.275 152.87 109.725 152.87Z" fill="#535461"/>
<path d="M108.057 146.17L108.055 146.172C107.322 146.719 107.172 147.756 107.72 148.488L112.678 155.101C113.227 155.833 114.266 155.983 115 155.435L115.002 155.434C115.736 154.887 115.885 153.85 115.337 153.118L110.379 146.504C109.83 145.773 108.791 145.623 108.057 146.17Z" fill="#FFB9B9"/>
<path d="M137.935 60.0971L137.354 67.4234C137.287 68.3514 137.3 69.2834 137.391 70.2094C137.466 71.0294 137.391 72.465 136.586 74.6548C135.552 77.4522 135.018 80.4086 135.008 83.39V91.7285L129.397 90.7552C129.397 90.7552 129.641 79.0759 128.666 77.1294C127.69 75.1828 129.397 57.9072 129.397 57.9072L137.935 60.0971Z" fill="#DB8B8B"/>
<path opacity="0.05" d="M137.647 63.7274L137.355 67.4234C137.289 68.3507 137.302 69.2819 137.394 70.207C137.469 71.0269 137.394 72.4625 136.589 74.6548C135.555 77.4522 135.021 80.4086 135.01 83.39V91.7285L129.4 90.7552C129.4 90.7552 129.644 79.0759 128.668 77.1294C127.978 75.7498 128.632 66.6813 129.073 61.5059C129.256 59.3769 129.4 57.9072 129.4 57.9072L137.938 60.0971L137.647 63.7274Z" fill="black"/>
<path d="M110.132 116.061L108.022 128.032C107.756 129.63 107.348 131.202 106.803 132.728C105.566 136.1 106.356 140.828 106.956 143.407C107.222 144.546 107.444 145.266 107.444 145.266L101.102 148.673L99.1508 147.213V146.239L98.9068 124.584C97.4433 121.178 97.9311 116.068 98.9068 114.121C99.1843 113.482 99.3793 112.81 99.4874 112.121C99.9752 109.513 100.126 105.848 100.126 105.848C100.126 105.848 104.029 99.2789 108.664 103.659C110.371 105.272 111.02 107.381 111.157 109.401C111.396 112.858 110.132 116.061 110.132 116.061Z" fill="#DB8B8B"/>
<path opacity="0.1" d="M111.157 109.394C107.774 111.399 101.888 111.965 99.4875 112.114C99.9754 109.506 100.127 105.841 100.127 105.841C100.127 105.841 104.029 99.2716 108.664 103.651C110.372 105.264 111.02 107.374 111.157 109.394Z" fill="black"/>
<path d="M119.397 103.408C116.803 104.786 114.352 106.416 112.079 108.274C108.176 111.437 98.4191 111.681 98.4191 111.681V108.031C98.6631 103.651 94.5163 98.7847 88.906 85.1589C85.3228 76.4578 86.3155 71.5331 87.501 69.0999C88.1743 67.7251 88.906 67.1533 88.906 67.1533L119.397 72.993L120.487 76.2534L122.812 83.2123C122.812 83.2123 114.274 83.699 112.811 84.4289C111.347 85.1589 112.323 91.7285 112.323 91.7285C110.859 98.5414 119.397 103.408 119.397 103.408Z" fill="#ABB1D1"/>
<path opacity="0.1" d="M137.935 60.0971L137.647 63.7274C133.403 64.944 130.373 61.0704 130.373 61.0704C129.931 61.1888 129.496 61.3342 129.071 61.5059C129.254 59.3769 129.398 57.9072 129.398 57.9072L137.935 60.0971Z" fill="black"/>
<path opacity="0.1" d="M120.487 76.2534C120.372 77.3897 120.372 78.1027 120.372 78.1027C120.372 78.1027 114.762 82.7257 105.249 75.6695C95.7359 68.6132 87.1985 70.5598 87.1985 70.5598C87.1985 70.5598 87.2985 69.9953 87.501 69.0999C88.1742 67.7251 88.906 67.1533 88.906 67.1533L119.397 72.993L120.487 76.2534Z" fill="black"/>
<path d="M141.223 50.5956C140.586 55.5472 140.374 61.7883 140.374 61.7883C134.764 66.168 130.373 60.5717 130.373 60.5717C125.075 61.9902 122.585 66.6157 121.411 70.6524C120.783 72.8358 120.434 75.0898 120.372 77.3607C120.372 77.3607 118.889 78.5772 116.157 78.8206C113.574 79.0371 109.871 78.3656 105.249 74.9275C95.7359 67.8712 87.1985 69.8178 87.1985 69.8178C87.1985 69.8178 88.906 60.0851 92.8088 57.1652C96.7116 54.2454 99.6387 50.5956 104.517 39.403C109.396 28.2103 119.397 30.8868 119.397 30.8868C119.397 30.8868 119.885 28.697 128.91 30.8868C131.108 31.4616 133.143 32.5368 134.854 34.0281C139.682 38.0769 142.023 44.357 141.223 50.5956Z" fill="white"/>
<path d="M132.171 36.3738C132.159 36.6974 132.132 37.0576 132.088 37.459C131.6 41.8388 131.113 41.3521 125.746 42.3254C122.409 42.9313 120.675 40.1501 119.841 37.9603C119.539 37.167 119.311 36.3476 119.16 35.5125L130.869 33.5659C130.869 33.5659 132.271 33.1742 132.171 36.3738Z" fill="#DB8B8B"/>
<path opacity="0.05" d="M121.411 70.6646C120.783 72.848 120.434 75.102 120.372 77.3728C120.372 77.3728 118.889 78.5894 116.157 78.8327C116.08 78.6777 116.021 78.5145 115.982 78.3461C115.494 76.1562 111.835 72.2632 111.835 72.2632C109.396 70.0733 108.908 66.1802 108.908 66.1802L104.883 54.3793L103.542 53.2843C103.542 53.2843 109.152 48.9046 114.03 52.5544C118.909 56.2042 117.445 63.9903 117.445 63.9903L118.421 66.6668C119.433 67.5184 120.463 69.0197 121.411 70.6646Z" fill="black"/>
<path d="M104.273 53.0409L109.64 65.9368C109.64 65.9368 110.127 69.8299 112.567 72.0198C112.567 72.0198 116.226 75.9128 116.713 78.1027C117.201 80.2926 124.031 86.1322 124.031 86.1322C124.031 86.1322 130.373 91.9719 130.861 94.1617C130.861 94.1617 136.715 95.8649 135.984 99.2714C135.984 99.2714 140.374 94.8917 135.984 90.7553C131.593 86.6189 125.739 78.1027 125.739 78.1027C125.739 78.1027 122.324 69.0999 119.153 66.4234L118.177 63.7469C118.177 63.7469 119.641 55.9607 114.762 52.311C109.883 48.6612 104.273 53.0409 104.273 53.0409Z" fill="#DB8B8B"/>
<path opacity="0.1" d="M107.444 145.259L101.102 148.665L99.1509 147.205V146.232C101.342 146.077 103.471 145.436 105.383 144.356C105.969 144.025 106.52 143.699 106.961 143.412C107.217 144.538 107.444 145.259 107.444 145.259Z" fill="black"/>
<path opacity="0.1" d="M114.762 42.8215L118.177 56.204C118.177 56.204 107.688 57.9073 105.493 56.204C103.298 54.5008 99.1509 54.0142 99.1509 54.0142C99.1509 54.0142 103.542 41.3616 105.981 39.9017C108.42 38.4418 114.762 42.8215 114.762 42.8215Z" fill="black"/>
<path d="M114.762 42.3349L118.177 55.7175C118.177 55.7175 107.688 57.4207 105.493 55.7175C103.298 54.0142 99.1509 53.5276 99.1509 53.5276C99.1509 53.5276 103.542 40.875 105.981 39.4151C108.42 37.9552 114.762 42.3349 114.762 42.3349Z" fill="white"/>
<path opacity="0.1" d="M132.171 36.1304C131.488 37.0711 130.619 37.8625 129.618 38.4558C128.617 39.0491 127.504 39.4318 126.349 39.5804C125.195 39.729 124.021 39.6404 122.902 39.3199C121.783 38.9994 120.741 38.4539 119.841 37.7169C119.539 36.9236 119.311 36.1042 119.16 35.2691L130.869 33.3225C130.869 33.3225 132.271 32.9308 132.171 36.1304Z" fill="black"/>
<path d="M133.788 30.8989C133.788 33.1575 132.889 35.3236 131.288 36.9207C129.687 38.5178 127.515 39.4151 125.251 39.4151C122.987 39.4151 120.815 38.5178 119.214 36.9207C117.613 35.3236 116.713 33.1575 116.713 30.8989C116.713 30.7578 116.713 30.6167 116.713 30.4755C116.77 28.2169 117.723 26.0731 119.364 24.5157C121.005 22.9583 123.199 22.1149 125.463 22.1711C127.727 22.2272 129.876 23.1783 131.438 24.8151C132.999 26.4519 133.844 28.6403 133.788 30.8989Z" fill="#DB8B8B"/>
<path opacity="0.1" d="M133.788 30.8989C133.789 31.6838 133.681 32.465 133.466 33.2202C132.807 33.3636 132.118 33.3008 131.496 33.0401C130.583 32.6824 129.8 32.0668 128.925 31.624C126.458 30.3782 123.524 30.624 120.792 31.0352C119.436 31.2396 117.897 31.4293 116.831 30.568C116.794 30.5392 116.759 30.5083 116.726 30.4755C116.782 28.2169 117.736 26.0731 119.376 24.5157C121.017 22.9583 123.211 22.1149 125.475 22.1711C127.74 22.2272 129.889 23.1783 131.45 24.8151C133.011 26.4519 133.857 28.6403 133.801 30.8989H133.788Z" fill="black"/>
<path d="M110.537 25.6311C111.057 27.2565 113.552 27.3076 114.833 28.5047C115.499 29.1276 115.808 30.0474 116.54 30.6021C117.557 31.3759 119.026 31.2056 120.321 31.0206C122.929 30.6508 125.729 30.4294 128.08 31.5511C128.914 31.9477 129.663 32.5024 130.534 32.8261C131.405 33.1497 132.486 33.1886 133.193 32.6144C133.759 32.1545 133.966 31.3978 134.478 30.8917C134.876 30.4926 135.43 30.2688 135.883 29.9184C136.879 29.169 137.308 27.9475 137.591 26.7796C138.176 24.3756 138.345 21.7843 137.347 19.5044C136.349 17.2245 133.949 15.368 131.329 15.4872C130.527 15.5237 129.744 15.7305 128.944 15.8181C126.858 16.0298 124.797 15.3315 122.704 15.2122C122.097 15.1386 121.481 15.2224 120.916 15.4556C120.49 15.6918 120.123 16.0202 119.84 16.4167C118.882 17.6686 118.226 19.124 117.923 20.6699C117.679 21.8354 117.667 22.8914 116.235 23.0714C114.608 23.2855 109.437 22.193 110.537 25.6311Z" fill="#472727"/>
<path opacity="0.05" d="M93.9065 57.0557C93.9065 57.0557 100.249 58.7589 102.2 63.1386C104.151 67.5184 109.43 68.3189 109.43 68.3189" fill="black"/>
<path d="M117.811 153.41H103.176V158.033H117.811V153.41Z" fill="#FFB9B9"/>
<path opacity="0.1" d="M117.811 153.41H103.176V158.033H117.811V153.41Z" fill="black"/>
<path d="M105.373 144.83C106.683 144.1 107.832 143.37 107.932 143.069C107.932 143.069 111.237 146.548 114.181 147.628C115.171 147.993 116.119 148.463 117.009 149.03C118.175 149.76 119.838 150.619 121.348 150.619C121.348 150.619 124.763 153.539 118.177 154.025C111.591 154.512 96.2236 152.809 96.2236 152.809L97.1993 146.726C100.05 146.892 102.889 146.234 105.373 144.83Z" fill="#ABB1D1"/>
</g>
<defs>
<linearGradient id="paint0_linear" x1="112.994" y1="180.798" x2="112.994" y2="14.7183" gradientUnits="userSpaceOnUse">
<stop stop-color="#808080" stop-opacity="0.25"/>
<stop offset="0.54" stop-color="#808080" stop-opacity="0.12"/>
<stop offset="1" stop-color="#808080" stop-opacity="0.1"/>
</linearGradient>
<clipPath id="clip0">
<rect width="258" height="191" fill="white"/>
</clipPath>
</defs>
</svg>
