<svg width="227" height="153" viewBox="0 0 227 153" fill="none" xmlns="http://www.w3.org/2000/svg">
<g clip-path="url(#clip0)">
<path d="M34.0776 124.297C32.4455 130.444 26.7264 134.286 26.7264 134.286C26.7264 134.286 23.6535 128.161 25.2856 122.014C26.9177 115.866 32.6368 112.025 32.6368 112.025C32.6368 112.025 35.7097 118.15 34.0776 124.297Z" fill="#3F3D56"/>
<path d="M31.6022 122.997C27.031 127.464 26.5195 134.283 26.5195 134.283C26.5195 134.283 33.4195 133.859 37.9908 129.392C42.5621 124.926 43.0735 118.107 43.0735 118.107C43.0735 118.107 36.1734 118.53 31.6022 122.997Z" fill="#FFB9B9"/>
<path d="M37.3345 132.486H19.4536C17.4923 132.486 15.9023 134.059 15.9023 135.999V139.489C15.9023 141.429 17.4923 143.001 19.4536 143.001H37.3345C39.2959 143.001 40.8858 141.429 40.8858 139.489V135.999C40.8858 134.059 39.2959 132.486 37.3345 132.486Z" fill="#FFB9B9"/>
<g opacity="0.7">
<path opacity="0.7" d="M209.253 125.769V121.98H190.099V139.504C190.099 139.989 190.196 140.47 190.384 140.918C190.571 141.366 190.847 141.773 191.193 142.116C191.54 142.459 191.952 142.731 192.405 142.917C192.858 143.103 193.344 143.198 193.834 143.198H205.518C206.509 143.198 207.459 142.809 208.159 142.116C208.86 141.424 209.253 140.484 209.253 139.504V135.621C210.573 135.618 211.837 135.098 212.769 134.174C213.7 133.251 214.224 132 214.224 130.695C214.224 129.39 213.7 128.139 212.769 127.215C211.837 126.292 210.573 125.772 209.253 125.769ZM209.253 133.726V127.664C210.066 127.664 210.846 127.983 211.42 128.552C211.995 129.12 212.318 129.891 212.318 130.695C212.318 131.499 211.995 132.27 211.42 132.838C210.846 133.407 210.066 133.726 209.253 133.726Z" fill="url(#paint0_linear)"/>
</g>
<path d="M208.637 126.362C207.738 126.362 206.859 126.626 206.111 127.12C205.363 127.614 204.78 128.317 204.436 129.139C204.092 129.96 204.002 130.865 204.177 131.737C204.353 132.609 204.786 133.411 205.422 134.04C206.058 134.669 206.868 135.097 207.75 135.27C208.632 135.444 209.546 135.355 210.377 135.015C211.208 134.674 211.918 134.098 212.418 133.358C212.917 132.619 213.184 131.749 213.184 130.86C213.184 129.667 212.705 128.523 211.852 127.68C211 126.836 209.843 126.362 208.637 126.362ZM208.637 133.627C208.084 133.627 207.543 133.465 207.083 133.161C206.622 132.857 206.264 132.424 206.052 131.919C205.84 131.413 205.785 130.856 205.893 130.32C206.001 129.783 206.267 129.29 206.658 128.903C207.05 128.516 207.548 128.252 208.091 128.145C208.634 128.038 209.197 128.093 209.708 128.303C210.219 128.512 210.656 128.867 210.964 129.322C211.271 129.777 211.435 130.312 211.435 130.86C211.435 131.594 211.14 132.298 210.616 132.817C210.091 133.336 209.379 133.627 208.637 133.627Z" fill="#FFB9B9"/>
<path opacity="0.1" d="M208.637 126.362C207.738 126.362 206.859 126.626 206.111 127.12C205.363 127.614 204.78 128.317 204.436 129.139C204.092 129.96 204.002 130.865 204.177 131.737C204.353 132.609 204.786 133.411 205.422 134.04C206.058 134.669 206.868 135.097 207.75 135.27C208.632 135.444 209.546 135.355 210.377 135.015C211.208 134.674 211.918 134.098 212.418 133.358C212.917 132.619 213.184 131.749 213.184 130.86C213.184 129.667 212.705 128.523 211.852 127.68C211 126.836 209.843 126.362 208.637 126.362ZM208.637 133.627C208.084 133.627 207.543 133.465 207.083 133.161C206.622 132.857 206.264 132.424 206.052 131.919C205.84 131.413 205.785 130.856 205.893 130.32C206.001 129.783 206.267 129.29 206.658 128.903C207.05 128.516 207.548 128.252 208.091 128.145C208.634 128.038 209.197 128.093 209.708 128.303C210.219 128.512 210.656 128.867 210.964 129.322C211.271 129.777 211.435 130.312 211.435 130.86C211.435 131.594 211.14 132.298 210.616 132.817C210.091 133.336 209.379 133.627 208.637 133.627Z" fill="black"/>
<path d="M191.149 122.903H208.637V140.022C208.637 140.62 208.397 141.193 207.97 141.616C207.543 142.038 206.963 142.276 206.359 142.276H193.427C192.823 142.276 192.243 142.038 191.816 141.616C191.389 141.193 191.149 140.62 191.149 140.022V122.903Z" fill="#FFB9B9"/>
<path d="M227 142.276H0V149.886H227V142.276Z" fill="#E0E0E0"/>
<g opacity="0.7">
<path opacity="0.7" d="M149.31 91.3527C146.877 82.6183 133.084 76.2402 122.706 74.826C122.708 74.7615 122.711 74.6976 122.711 74.6329V67.1561C122.722 67.1521 122.734 67.1488 122.745 67.1448V66.8614C126.428 65.5066 129.751 63.3413 132.464 60.5293C135.177 57.7173 137.208 54.3321 138.403 50.6296C139.045 49.4826 139.603 48.292 140.074 47.0668C141.182 46.6678 142.019 44.8608 142.019 42.6897C142.023 41.947 141.917 41.2077 141.706 40.4951C141.842 39.3893 141.911 38.2765 141.914 37.1626C141.918 33.2685 141.094 29.4171 139.496 25.8582C137.898 22.2993 135.561 19.1126 132.638 16.5048C132.724 16.0574 132.754 15.601 132.725 15.1464C132.491 11.5578 128.615 9.11983 124.983 8.95676C125.942 7.88025 126.573 6.55651 126.802 5.13943C127.031 3.72235 126.848 2.27014 126.276 0.951631C123.96 4.28881 119.205 4.64355 115.113 4.66979C116.878 3.99343 117.673 1.57347 116.646 0C112.369 5.67021 104.031 6.72019 98.9439 11.6931C97.8356 12.7808 96.9068 14.0338 96.1913 15.4064C92.8852 18.0114 90.216 21.3206 88.3824 25.0875C86.5488 28.8544 85.5982 32.9819 85.6013 37.1626C85.6036 38.2664 85.6717 39.3692 85.8052 40.4651C85.5871 41.1868 85.4784 41.9364 85.4827 42.6897C85.4827 44.8708 86.3273 46.6833 87.4427 47.0711C87.9157 48.3006 88.4766 49.4951 89.1211 50.6458C90.3124 54.3268 92.3298 57.6937 95.0224 60.4947C97.715 63.2957 101.013 65.4582 104.67 66.8206V74.6329C104.67 74.693 104.673 74.7523 104.675 74.8122C94.2572 76.2021 80.3541 82.6305 77.9428 91.4351C75.8605 99.0385 73.6377 107.389 72.5317 112.291C82.0115 118.879 101.903 122.748 114.369 122.748C126.213 122.748 145.572 119.256 154.773 113.257C153.776 107.871 151.483 99.1537 149.31 91.3527Z" fill="url(#paint1_linear)"/>
</g>
<path d="M114.344 120.579C125.769 120.579 144.444 117.211 153.32 111.424C152.358 106.228 150.146 97.8187 148.05 90.2934C145.381 80.7094 128.532 74.0652 118.481 74.0652H108.796C98.7137 74.0652 81.8407 80.7479 79.2048 90.3728C77.196 97.7076 75.0517 105.763 73.9849 110.492C83.1296 116.847 102.318 120.579 114.344 120.579Z" fill="#FFB9B9"/>
<path d="M113.754 64.8821C128.755 64.8821 140.915 52.8546 140.915 38.018C140.915 23.1813 128.755 11.1538 113.754 11.1538C98.753 11.1538 86.5925 23.1813 86.5925 38.018C86.5925 52.8546 98.753 64.8821 113.754 64.8821Z" fill="#72351C"/>
<path opacity="0.1" d="M104.988 60.3938H122.391V74.1645C122.391 76.4471 121.474 78.6363 119.843 80.2503C118.211 81.8644 115.997 82.7711 113.689 82.7711H113.689C111.382 82.7711 109.168 81.8644 107.536 80.2503C105.904 78.6363 104.988 76.4471 104.988 74.1645V60.3938H104.988Z" fill="black"/>
<path d="M107.484 59.7561H119.895C120.557 59.7561 121.192 60.0162 121.66 60.4793C122.128 60.9423 122.391 61.5703 122.391 62.2251V73.5268C122.391 75.8094 121.474 77.9985 119.843 79.6126C118.211 81.2267 115.997 82.1334 113.689 82.1334H113.689C111.382 82.1334 109.168 81.2267 107.536 79.6126C105.904 77.9985 104.988 75.8094 104.988 73.5268V62.2251C104.988 61.5703 105.251 60.9423 105.719 60.4793C106.187 60.0162 106.822 59.7561 107.484 59.7561Z" fill="#FDA57D"/>
<path opacity="0.1" d="M105.02 66.8934C110.629 68.9662 116.803 68.9831 122.423 66.941V64.8264H105.02V66.8934Z" fill="black"/>
<path d="M113.754 68.0458C127.531 68.0458 138.699 56.9996 138.699 43.3734C138.699 29.7472 127.531 18.7009 113.754 18.7009C99.977 18.7009 88.8086 29.7472 88.8086 43.3734C88.8086 56.9996 99.977 68.0458 113.754 68.0458Z" fill="#FDA57D"/>
<path opacity="0.1" d="M95.9854 20.9311C95.9854 20.9311 106.498 42.0374 136.154 29.7771L129.25 19.0688L117.011 14.7234L95.9854 20.9311Z" fill="black"/>
<path d="M95.9854 20.6208C95.9854 20.6208 106.498 41.7271 136.154 29.4668L129.25 18.7585L117.011 14.4131L95.9854 20.6208Z" fill="#72351C"/>
<path d="M95.892 19.1948C96.6006 17.0244 97.8255 15.0538 99.4638 13.4486C104.371 8.65142 112.414 7.63857 116.54 2.1687C117.531 3.68659 116.765 6.02103 115.061 6.67349C119.009 6.64816 123.596 6.30597 125.83 3.08671C126.382 4.35863 126.558 5.75953 126.338 7.12653C126.117 8.49354 125.508 9.77051 124.583 10.809C128.087 10.9663 131.825 13.3181 132.051 16.7799C132.202 19.0862 130.74 21.2697 128.824 22.5923C126.908 23.915 124.59 24.5221 122.308 25.0197C115.647 26.4723 91.5456 32.5603 95.892 19.1948Z" fill="#72351C"/>
<path d="M138.698 43.5894H138.037L125.17 54.9185C112.774 49.1763 103.674 54.9185 103.674 54.9185L90.1795 44.0549L88.8188 44.224C89.0033 50.6995 91.7553 56.8433 96.4806 61.329C101.206 65.8147 107.525 68.2823 114.075 68.199C120.624 68.1157 126.877 65.4881 131.484 60.8836C136.091 56.2792 138.682 50.0673 138.698 43.5894ZM113.716 59.2639C108.863 59.2639 104.929 58.2911 104.929 57.0912C104.929 55.8912 108.863 54.9185 113.716 54.9185C118.569 54.9185 122.503 55.8912 122.503 57.0912C122.503 58.2911 118.569 59.2639 113.716 59.2639Z" fill="#72351C"/>
<path d="M88.7988 47.6533C90.0803 47.6533 91.1193 45.7266 91.1193 43.35C91.1193 40.9733 90.0803 39.0466 88.7988 39.0466C87.5172 39.0466 86.4783 40.9733 86.4783 43.35C86.4783 45.7266 87.5172 47.6533 88.7988 47.6533Z" fill="#FDA57D"/>
<path d="M138.696 47.6533C139.977 47.6533 141.016 45.7266 141.016 43.35C141.016 40.9733 139.977 39.0466 138.696 39.0466C137.414 39.0466 136.375 40.9733 136.375 43.35C136.375 45.7266 137.414 47.6533 138.696 47.6533Z" fill="#FDA57D"/>
<g opacity="0.7">
<path opacity="0.7" d="M158.38 87.2942H68.6202C66.7489 87.2942 65.2319 88.7946 65.2319 90.6454V138.925C65.2319 140.775 66.7489 142.276 68.6202 142.276H158.38C160.251 142.276 161.768 140.775 161.768 138.925V90.6454C161.768 88.7946 160.251 87.2942 158.38 87.2942Z" fill="url(#paint2_linear)"/>
</g>
<path d="M153.749 88.3086H73.2514C69.7882 88.3086 66.9807 91.0853 66.9807 94.5107V136.074C66.9807 139.499 69.7882 142.276 73.2514 142.276H153.749C157.212 142.276 160.019 139.499 160.019 136.074V94.5107C160.019 91.0853 157.212 88.3086 153.749 88.3086Z" fill="#535461"/>
<path d="M113.5 118.406C115.239 118.406 116.648 117.012 116.648 115.292C116.648 113.573 115.239 112.179 113.5 112.179C111.761 112.179 110.352 113.573 110.352 115.292C110.352 117.012 111.761 118.406 113.5 118.406Z" fill="white"/>
<path d="M217.381 149.886H9.61865V153H217.381V149.886Z" fill="#E0E0E0"/>
<path opacity="0.1" d="M217.381 149.886H9.61865V150.924H217.381V149.886Z" fill="black"/>
<path opacity="0.1" d="M205.489 122.903V138.903C205.489 139.797 205.13 140.655 204.49 141.288C203.851 141.92 202.984 142.276 202.079 142.276H203.828C204.732 142.276 205.6 141.92 206.239 141.288C206.879 140.655 207.238 139.797 207.238 138.903V122.903H205.489Z" fill="black"/>
<path d="M194.6 110.007C194.305 110.057 193.972 110.136 193.827 110.395C193.598 110.807 194.014 111.27 194.393 111.553C195.094 112.075 195.833 112.588 196.309 113.317C196.785 114.046 196.935 115.063 196.414 115.761C195.734 116.673 194.112 116.869 193.955 117.992C193.854 118.712 194.484 119.327 195.122 119.689C196.698 120.581 198.728 120.819 199.869 122.216C200.341 121.256 201.397 120.701 202.45 120.464C203.502 120.227 204.595 120.245 205.662 120.084C206.007 120.032 206.395 119.928 206.549 119.619C206.847 119.02 205.997 118.302 206.291 117.701C206.514 117.244 207.17 117.279 207.649 117.096C208.429 116.798 208.751 115.805 208.529 115.007C208.308 114.21 207.682 113.586 207.025 113.075C205.253 111.698 203.122 110.888 200.966 110.305C199.964 110.034 198.787 109.609 197.746 109.568C196.741 109.529 195.595 109.839 194.6 110.007Z" fill="#EEEEEE"/>
</g>
<defs>
<linearGradient id="paint0_linear" x1="202.166" y1="143.198" x2="202.166" y2="121.98" gradientUnits="userSpaceOnUse">
<stop stop-color="#808080" stop-opacity="0.25"/>
<stop offset="0.53514" stop-color="#808080" stop-opacity="0.12"/>
<stop offset="1" stop-color="#808080" stop-opacity="0.1"/>
</linearGradient>
<linearGradient id="paint1_linear" x1="49470.7" y1="79799" x2="49470.7" y2="14607" gradientUnits="userSpaceOnUse">
<stop stop-color="#808080" stop-opacity="0.25"/>
<stop offset="0.53514" stop-color="#808080" stop-opacity="0.12"/>
<stop offset="1" stop-color="#808080" stop-opacity="0.1"/>
</linearGradient>
<linearGradient id="paint2_linear" x1="46954.8" y1="33933.9" x2="46954.8" y2="20854.1" gradientUnits="userSpaceOnUse">
<stop stop-color="#808080" stop-opacity="0.25"/>
<stop offset="0.53514" stop-color="#808080" stop-opacity="0.12"/>
<stop offset="1" stop-color="#808080" stop-opacity="0.1"/>
</linearGradient>
<clipPath id="clip0">
<rect width="227" height="153" fill="white"/>
</clipPath>
</defs>
</svg>
