<svg width="289" height="194" viewBox="0 0 289 194" fill="none" xmlns="http://www.w3.org/2000/svg">
<g clip-path="url(#clip0)">
<path d="M271.793 47.3171C272.631 46.2561 273.392 45.1373 274.072 43.9693L257.999 41.3377L275.382 41.4652C277.05 37.8446 277.961 33.9223 278.057 29.9384C278.153 25.9546 277.434 21.993 275.942 18.2963L252.621 30.3691L274.129 14.5931C272.114 11.1188 269.403 8.09579 266.166 5.71237C262.929 3.32895 259.235 1.63618 255.314 0.739511C251.393 -0.15716 247.328 -0.238527 243.374 0.500477C239.42 1.23948 235.661 2.78303 232.331 5.03497C229.001 7.28691 226.171 10.199 224.018 13.5899C221.864 16.9807 220.434 20.7777 219.815 24.7443C219.196 28.7108 219.403 32.7621 220.421 36.6456C221.44 40.5291 223.249 44.1617 225.736 47.3171C224.434 48.9696 223.314 50.7568 222.395 52.6481L243.258 63.4648L221.014 56.0149C219.451 60.6225 219.064 65.5462 219.888 70.3406C220.712 75.135 222.721 79.6486 225.733 83.473C222.619 87.4245 220.578 92.1104 219.808 97.0784C219.038 102.046 219.564 107.129 221.335 111.834C223.107 116.54 226.064 120.711 229.922 123.944C233.78 127.177 238.408 129.363 243.359 130.291C242.971 131.381 242.775 132.531 242.78 133.688C242.762 135.4 243.202 137.085 244.055 138.571C243.219 140.063 242.78 141.745 242.78 143.454C242.78 145.164 243.219 146.845 244.055 148.338C243.219 149.83 242.78 151.511 242.78 153.221C242.78 154.931 243.219 156.612 244.055 158.104C243.219 159.597 242.78 161.278 242.78 162.988C242.78 164.698 243.219 166.379 244.055 167.871C243.202 169.357 242.762 171.043 242.78 172.755C242.78 177.169 245.517 180.744 248.897 180.744C252.276 180.744 255.014 177.169 255.014 172.755C255.03 171.042 254.589 169.357 253.736 167.871C254.574 166.379 255.014 164.698 255.014 162.988C255.014 161.278 254.574 159.596 253.736 158.104C254.574 156.613 255.014 154.931 255.014 153.221C255.014 151.511 254.574 149.83 253.736 148.338C254.574 146.846 255.014 145.164 255.014 143.454C255.014 141.744 254.574 140.063 253.736 138.571C254.589 137.085 255.03 135.4 255.014 133.688C255.018 132.514 254.816 131.349 254.418 130.245C259.34 129.278 263.931 127.067 267.751 123.823C271.572 120.579 274.494 116.41 276.237 111.717C277.981 107.023 278.488 101.961 277.71 97.016C276.932 92.0707 274.895 87.4076 271.793 83.473C275.856 78.3194 278.065 71.9524 278.065 65.3951C278.065 58.8377 275.856 52.4708 271.793 47.3171Z" fill="#F2F2F2"/>
<path d="M174.902 78.4352C174.343 77.7249 173.835 76.977 173.379 76.197L184.126 74.4363L172.504 74.5204C171.388 72.0996 170.78 69.4771 170.715 66.8134C170.651 64.1497 171.132 61.501 172.129 59.0292L187.726 67.1031L173.344 56.5523C174.689 54.2244 176.501 52.1983 178.666 50.6003C180.831 49.0023 183.302 47.8668 185.927 47.2646C188.551 46.6624 191.272 46.6065 193.919 47.1004C196.565 47.5942 199.082 48.6272 201.311 50.1349C203.54 51.6426 205.434 53.5926 206.874 55.8632C208.314 58.1338 209.27 60.6762 209.681 63.3318C210.093 65.9874 209.951 68.6992 209.266 71.2978C208.58 73.8964 207.365 76.3261 205.696 78.4352C206.568 79.5395 207.317 80.7347 207.931 82L193.979 89.2329L208.861 84.2491C209.907 87.3303 210.166 90.6233 209.614 93.8295C209.063 97.0358 207.718 100.054 205.702 102.611C207.785 105.253 209.151 108.386 209.666 111.708C210.182 115.03 209.831 118.429 208.646 121.576C207.462 124.723 205.484 127.512 202.905 129.674C200.325 131.836 197.23 133.298 193.919 133.918C194.177 134.648 194.308 135.416 194.305 136.189C194.315 137.331 194.021 138.454 193.451 139.445C194.011 140.442 194.305 141.567 194.305 142.71C194.305 143.853 194.011 144.977 193.451 145.975C194.011 146.973 194.305 148.098 194.305 149.241C194.305 150.385 194.011 151.51 193.451 152.508C194.011 153.505 194.305 154.63 194.305 155.773C194.305 156.916 194.011 158.04 193.451 159.038C194.02 160.028 194.315 161.152 194.305 162.293C194.305 165.243 192.475 167.635 190.227 167.635C187.979 167.635 186.149 165.243 186.149 162.293C186.139 161.152 186.434 160.028 187.003 159.038C186.443 158.04 186.149 156.916 186.149 155.773C186.149 154.63 186.443 153.505 187.003 152.508C186.443 151.51 186.149 150.385 186.149 149.241C186.149 148.098 186.443 146.973 187.003 145.975C186.443 144.977 186.149 143.853 186.149 142.71C186.149 141.567 186.443 140.442 187.003 139.445C186.434 138.454 186.139 137.331 186.149 136.189C186.146 135.404 186.282 134.624 186.549 133.886C183.257 133.24 180.187 131.762 177.632 129.592C175.077 127.423 173.123 124.636 171.957 121.498C170.79 118.359 170.451 114.974 170.971 111.667C171.491 108.36 172.853 105.242 174.926 102.611C172.21 99.1642 170.734 94.9072 170.734 90.5229C170.734 86.1386 172.21 81.8815 174.926 78.4352H174.902Z" fill="#F2F2F2"/>
<path d="M152.834 194C228.037 194 289 186.348 289 176.908C289 167.469 228.037 159.816 152.834 159.816C77.632 159.816 16.6685 167.469 16.6685 176.908C16.6685 186.348 77.632 194 152.834 194Z" fill="#F2F2F2"/>
<path d="M194.65 138.465C194.65 139.008 194.634 139.55 194.604 140.071C194.604 140.15 194.604 140.226 194.604 140.305C194.459 142.597 194.042 144.863 193.362 147.057C193.343 147.125 193.318 147.198 193.296 147.266C192.6 149.45 191.664 151.551 190.507 153.53L190.39 153.726C189.147 155.812 187.689 157.764 186.04 159.548L185.872 159.727C184.018 161.711 181.966 163.5 179.746 165.066C179.67 165.123 179.591 165.18 179.515 165.232C177.19 166.856 174.717 168.258 172.129 169.42C171.772 169.58 171.414 169.738 171.041 169.892L170.715 170.028C166.754 171.655 162.605 172.779 158.364 173.373L157.845 173.444C155.463 173.757 153.064 173.914 150.662 173.913C132.86 173.913 117.526 165.389 110.607 153.123C110.141 152.304 109.716 151.469 109.332 150.617L109.175 150.267C107.706 146.932 106.87 143.355 106.709 139.716C106.709 139.626 106.709 139.54 106.709 139.445C106.709 139.119 106.695 138.791 106.695 138.462C106.694 135.926 107.027 133.4 107.685 130.95C107.704 130.874 107.723 130.801 107.744 130.728C108.436 128.231 109.441 125.832 110.735 123.587C110.77 123.525 110.806 123.46 110.844 123.397C112.119 121.223 113.629 119.194 115.346 117.347C115.391 117.291 115.439 117.238 115.49 117.187L115.512 117.166C115.727 116.938 115.944 116.707 116.167 116.482L116.501 116.145C116.722 115.926 116.947 115.711 117.173 115.494H117.187C117.73 114.984 118.284 114.49 118.848 114.01C119.631 113.348 120.449 112.711 121.294 112.098L121.477 111.962C123.721 110.364 126.107 108.974 128.605 107.808C128.678 107.773 128.755 107.735 128.828 107.705C131.642 106.409 134.572 105.379 137.579 104.629C137.675 104.602 137.767 104.58 137.851 104.558C141.576 103.651 145.388 103.146 149.221 103.053C149.349 103.053 149.476 103.053 149.607 103.053C149.955 103.053 150.306 103.039 150.656 103.039C168.298 103.039 183.515 111.414 190.523 123.495C190.586 123.603 190.646 123.712 190.708 123.818L190.98 124.293C191.13 124.564 191.271 124.835 191.412 125.123C191.478 125.253 191.54 125.38 191.603 125.511C191.641 125.587 191.681 125.663 191.717 125.741C192.742 127.87 193.512 130.112 194.009 132.421C194.03 132.51 194.047 132.597 194.066 132.692C194.453 134.592 194.649 136.526 194.65 138.465Z" fill="#FFB9B9"/>
<g opacity="0.2">
<path opacity="0.2" d="M190.716 123.794C188.706 123.034 186.713 122.244 184.735 121.422C172.396 116.325 160.521 110.174 149.243 103.037H149.629C162.559 111.181 176.264 118.029 190.545 123.482C190.597 123.587 190.657 123.688 190.716 123.794Z" fill="#F2F2F2"/>
</g>
<g opacity="0.2">
<path opacity="0.2" d="M194.063 132.659C189.17 131.032 184.328 129.223 179.537 127.233C167.071 122.087 155.079 115.865 143.697 108.639C141.551 107.277 139.512 105.934 137.58 104.61L137.851 104.542C139.738 105.828 141.732 107.137 143.833 108.47C159.534 118.427 176.38 126.461 194.006 132.399C194.028 132.486 194.044 132.573 194.063 132.659Z" fill="#F2F2F2"/>
</g>
<g opacity="0.2">
<path opacity="0.2" d="M194.604 140.071C194.604 140.15 194.604 140.229 194.604 140.305C187.773 138.227 181.026 135.814 174.363 133.066C161.895 127.916 149.901 121.69 138.517 114.458C134.915 112.171 131.609 109.93 128.613 107.792L128.836 107.687C131.808 109.805 135.089 112.027 138.651 114.29C156.065 125.337 174.883 134.008 194.604 140.071Z" fill="#F2F2F2"/>
</g>
<g opacity="0.2">
<path opacity="0.2" d="M193.348 147.054C193.329 147.127 193.305 147.198 193.283 147.269C185.089 144.935 177.036 142.136 169.163 138.885C156.696 133.737 144.703 127.511 133.322 120.28C128.847 117.439 124.832 114.667 121.295 112.081L121.477 111.948C125.011 114.523 129.002 117.282 133.455 120.112C152.029 131.898 172.198 140.971 193.348 147.054Z" fill="#F2F2F2"/>
</g>
<g opacity="0.2">
<path opacity="0.2" d="M190.494 153.53L190.377 153.726C181.396 151.273 172.579 148.261 163.975 144.708C151.508 139.558 139.515 133.332 128.132 126.102C123.336 123.055 119.063 120.085 115.354 117.342C115.398 117.29 115.447 117.236 115.498 117.185C119.212 119.925 123.483 122.882 128.276 125.934C142.514 134.982 163.839 146.238 190.494 153.53Z" fill="#F2F2F2"/>
</g>
<g opacity="0.2">
<path opacity="0.2" d="M186.029 159.548L185.861 159.727C176.648 157.243 167.605 154.171 158.788 150.53C146.321 145.38 134.327 139.155 122.945 131.924C118.399 129.032 114.321 126.213 110.735 123.587C110.77 123.525 110.806 123.462 110.844 123.4C114.43 126.029 118.519 128.856 123.078 131.753C137.454 140.888 159.038 152.263 186.029 159.548Z" fill="#F2F2F2"/>
</g>
<g opacity="0.2">
<path opacity="0.2" d="M179.736 165.066C179.659 165.123 179.581 165.18 179.504 165.231C170.696 162.803 162.045 159.838 153.601 156.352C141.133 151.203 129.14 144.977 117.757 137.746C114.087 135.413 110.719 133.134 107.677 130.95C107.696 130.877 107.715 130.804 107.736 130.73C110.8 132.92 114.191 135.226 117.893 137.578C132.071 146.585 153.261 157.771 179.736 165.066Z" fill="#F2F2F2"/>
</g>
<g opacity="0.2">
<path opacity="0.2" d="M171.039 169.892L170.712 170.028C163.147 167.805 155.706 165.183 148.419 162.174C141.35 159.257 134.388 155.966 127.597 152.339C122.485 149.604 117.478 146.681 112.576 143.568C110.526 142.266 108.574 140.982 106.72 139.716C106.72 139.626 106.72 139.539 106.72 139.444C108.619 140.738 110.621 142.054 112.725 143.394C117.192 146.235 122.358 149.29 128.165 152.374C141.827 159.642 156.192 165.511 171.039 169.892Z" fill="#F2F2F2"/>
</g>
<g opacity="0.2">
<path opacity="0.2" d="M158.364 173.373L157.845 173.444C152.92 171.8 148.045 169.983 143.218 167.993C132.774 163.679 122.661 158.606 112.962 152.814C111.751 152.091 110.546 151.358 109.346 150.617L109.188 150.267C110.51 151.088 111.885 151.924 113.315 152.776C127.55 161.23 142.653 168.135 158.364 173.373Z" fill="#F2F2F2"/>
</g>
<path opacity="0.1" d="M172.118 169.42C171.762 169.58 171.403 169.738 171.03 169.892L170.704 170.028C166.747 171.654 162.601 172.777 158.364 173.373L157.845 173.443C155.463 173.757 153.064 173.914 150.662 173.913C132.86 173.913 117.527 165.389 110.607 153.123C111.385 153.004 112.165 152.903 112.948 152.814L113.302 152.776C115.406 152.553 117.527 152.429 119.642 152.339C122.288 152.201 124.939 152.201 127.586 152.339C127.771 152.339 127.955 152.361 128.129 152.377C129.933 152.505 131.724 152.766 133.488 153.158C138.857 154.374 143.778 157.014 148.656 159.561C156.189 163.484 163.891 167.309 172.118 169.42Z" fill="black"/>
<path opacity="0.1" d="M190.534 123.471C183.525 111.39 168.309 103.015 150.667 103.015C150.317 103.015 149.966 103.015 149.618 103.015H149.232C145.399 103.107 141.587 103.612 137.862 104.52L137.59 104.588C134.584 105.34 131.654 106.37 128.839 107.665L128.616 107.771C126.118 108.936 123.732 110.327 121.488 111.927L121.305 112.06C119.216 113.562 117.28 115.265 115.523 117.144C115.294 119.458 114.903 121.723 113.891 123.81C113.179 125.275 112.442 126.685 113.451 128.15C114.128 129.135 115.593 130.383 116.841 130.432C120.27 130.57 122.175 125.996 123.79 123.717C126.264 120.229 129.932 117.806 133.515 115.465C135.046 114.463 136.593 113.454 138.319 112.855C139.775 112.384 141.289 112.119 142.818 112.065C146.986 111.832 151.246 112.464 155.053 114.187C159.402 116.154 163.263 119.545 168.01 120.014C170.16 120.226 172.36 119.811 174.467 120.302C178.21 121.178 180.807 124.702 184.45 125.934C186.807 126.732 189.343 126.477 191.741 125.695C191.431 125.044 191.099 124.403 190.744 123.772C190.657 123.688 190.597 123.587 190.534 123.471Z" fill="black"/>
<path d="M83.9097 137.065C82.6211 138.422 81.1747 139.613 79.8453 140.928C74.9217 145.812 71.7653 152.157 67.3393 157.478C66.1458 158.913 64.849 160.291 63.96 161.93C63.0709 163.568 62.6251 165.562 63.2612 167.315C63.805 168.818 65.0583 169.944 66.2763 170.983C67.0275 171.671 67.8527 172.274 68.7367 172.782C70.7811 173.867 73.2008 173.926 75.5171 173.962C76.7949 173.981 78.3527 173.837 78.8992 172.684C76.8286 171.699 74.9215 170.404 73.2443 168.842C72.2846 167.947 71.3793 166.922 70.9905 165.671C70.3271 163.538 71.3086 161.216 72.6978 159.466C74.0871 157.716 75.8787 156.314 77.2353 154.539C78.592 152.765 79.4674 150.728 81.1013 149.279C82.2323 148.278 83.6379 147.651 84.9075 146.818C86.7616 145.6 88.2923 143.962 89.8011 142.339L97.8213 133.731C98.0147 133.566 98.1477 133.342 98.1992 133.093C98.2318 132.77 97.9926 132.488 97.7642 132.255C96.0188 130.467 92.7292 127.328 90.3313 129.683C88.0204 131.951 86.1472 134.71 83.9097 137.065Z" fill="#A0616A"/>
<path opacity="0.1" d="M83.9097 137.065C82.6211 138.422 81.1747 139.613 79.8453 140.928C74.9217 145.812 71.7653 152.157 67.3393 157.478C66.1458 158.913 64.849 160.291 63.96 161.93C63.0709 163.568 62.6251 165.562 63.2612 167.315C63.805 168.818 65.0583 169.944 66.2763 170.983C67.0275 171.671 67.8527 172.274 68.7367 172.782C70.7811 173.867 73.2008 173.926 75.5171 173.962C76.7949 173.981 78.3527 173.837 78.8992 172.684C76.8286 171.699 74.9215 170.404 73.2443 168.842C72.2846 167.947 71.3793 166.922 70.9905 165.671C70.3271 163.538 71.3086 161.216 72.6978 159.466C74.0871 157.716 75.8787 156.314 77.2353 154.539C78.592 152.765 79.4674 150.728 81.1013 149.279C82.2323 148.278 83.6379 147.651 84.9075 146.818C86.7616 145.6 88.2923 143.962 89.8011 142.339L97.8213 133.731C98.0147 133.566 98.1477 133.342 98.1992 133.093C98.2318 132.77 97.9926 132.488 97.7642 132.255C96.0188 130.467 92.7292 127.328 90.3313 129.683C88.0204 131.951 86.1472 134.71 83.9097 137.065Z" fill="black"/>
<path d="M95.3718 121.417C96.9895 121.075 98.7321 121.935 100.295 121.401C101.182 121.097 101.859 120.391 102.498 119.708L105.107 116.932C105.844 116.148 106.595 115.348 107.049 114.371C107.451 113.508 107.592 112.556 107.788 111.623C108.267 109.235 109.085 106.788 110.882 105.144C113.122 103.088 116.575 102.703 119.451 103.685C122.328 104.667 124.669 106.859 126.389 109.366C124.851 111.211 123.127 112.914 121.591 114.759C121.1 115.405 120.523 115.981 119.875 116.471C119.159 116.907 118.389 117.247 117.584 117.483C114.819 118.46 111.874 119.873 110.735 122.573C110.338 123.511 110.191 124.534 109.974 125.53C109.555 127.412 108.791 129.276 107.41 130.625C106.029 131.973 103.944 132.711 102.103 132.128C100.067 131.482 98.8191 129.491 97.7697 127.635C96.654 125.698 95.8451 123.6 95.3718 121.417Z" fill="#A0616A"/>
<path opacity="0.1" d="M95.3718 121.417C96.9895 121.075 98.7321 121.935 100.295 121.401C101.182 121.097 101.859 120.391 102.498 119.708L105.107 116.932C105.844 116.148 106.595 115.348 107.049 114.371C107.451 113.508 107.592 112.556 107.788 111.623C108.267 109.235 109.085 106.788 110.882 105.144C113.122 103.088 116.575 102.703 119.451 103.685C122.328 104.667 124.669 106.859 126.389 109.366C124.851 111.211 123.127 112.914 121.591 114.759C121.1 115.405 120.523 115.981 119.875 116.471C119.159 116.907 118.389 117.247 117.584 117.483C114.819 118.46 111.874 119.873 110.735 122.573C110.338 123.511 110.191 124.534 109.974 125.53C109.555 127.412 108.791 129.276 107.41 130.625C106.029 131.973 103.944 132.711 102.103 132.128C100.067 131.482 98.8191 129.491 97.7697 127.635C96.654 125.698 95.8451 123.6 95.3718 121.417Z" fill="black"/>
<path d="M166.197 110.641C176.413 114.29 186.57 118.612 195.015 125.427C198.881 128.549 202.325 132.152 206.001 135.497C207.926 137.25 209.913 138.929 211.9 140.611L226.008 152.548C227.753 154.027 229.507 155.508 231.445 156.745C236.004 159.67 241.442 161.157 245.906 164.301C245.898 165.925 246.164 167.538 246.694 169.073C246.897 169.638 247.279 170.122 247.783 170.45C248.286 170.777 248.884 170.931 249.484 170.888C256.514 170.484 263.643 173.889 270.725 173.031C270.929 173.009 271.126 172.94 271.299 172.829C271.472 172.719 271.617 172.57 271.723 172.394C272.198 171.564 271.386 170.788 270.673 170.291L261.057 163.574C259.472 162.467 257.887 161.36 256.272 160.299C250.433 156.469 244.196 153.216 238.783 148.818C237.627 147.879 236.516 146.892 235.401 145.902C229.507 140.676 223.61 135.446 218.023 129.895C209.902 121.824 202.222 112.819 194.172 104.678C193.407 103.866 192.582 103.112 191.703 102.423C190.845 101.813 189.944 101.263 189.009 100.777L178.79 95.1742C177.243 94.3251 175.527 93.4488 173.801 93.7825C173.373 93.6774 172.926 93.6793 172.499 93.7882C172.072 93.8971 171.679 94.1094 171.354 94.4065C170.696 95.0114 170.266 95.8118 169.831 96.5958C169.263 97.5452 168.816 98.5613 168.499 99.6208C168.135 101.061 168.255 102.605 167.833 104.021C167.561 104.957 167.056 105.812 166.713 106.734C166.264 107.985 166.088 109.317 166.197 110.641Z" fill="#A0616A"/>
<path opacity="0.1" d="M166.197 110.641C176.413 114.29 186.57 118.612 195.015 125.427C198.881 128.549 202.325 132.152 206.001 135.497C207.926 137.25 209.913 138.929 211.9 140.611L226.008 152.548C227.753 154.027 229.507 155.508 231.445 156.745C236.004 159.67 241.442 161.157 245.906 164.301C245.898 165.925 246.164 167.538 246.694 169.073C246.897 169.638 247.279 170.122 247.783 170.45C248.286 170.777 248.884 170.931 249.484 170.888C256.514 170.484 263.643 173.889 270.725 173.031C270.929 173.009 271.126 172.94 271.299 172.829C271.472 172.719 271.617 172.57 271.723 172.394C272.198 171.564 271.386 170.788 270.673 170.291L261.057 163.574C259.472 162.467 257.887 161.36 256.272 160.299C250.433 156.469 244.196 153.216 238.783 148.818C237.627 147.879 236.516 146.892 235.401 145.902C229.507 140.676 223.61 135.446 218.023 129.895C209.902 121.824 202.222 112.819 194.172 104.678C193.407 103.866 192.582 103.112 191.703 102.423C190.845 101.813 189.944 101.263 189.009 100.777L178.79 95.1742C177.243 94.3251 175.527 93.4488 173.801 93.7825C173.373 93.6774 172.926 93.6793 172.499 93.7882C172.072 93.8971 171.679 94.1094 171.354 94.4065C170.696 95.0114 170.266 95.8118 169.831 96.5958C169.263 97.5452 168.816 98.5613 168.499 99.6208C168.135 101.061 168.255 102.605 167.833 104.021C167.561 104.957 167.056 105.812 166.713 106.734C166.264 107.985 166.088 109.317 166.197 110.641Z" fill="black"/>
<path d="M96.8754 142.516C103.228 142.516 108.378 137.377 108.378 131.037C108.378 124.698 103.228 119.559 96.8754 119.559C90.5225 119.559 85.3726 124.698 85.3726 131.037C85.3726 137.377 90.5225 142.516 96.8754 142.516Z" fill="#A0616A"/>
<path d="M166.876 89.5882C168.483 89.6154 170.307 89.7402 171.318 90.9854C172.33 92.2307 172.101 93.9371 171.846 95.4727C171.047 100.326 170.215 105.267 167.991 109.656C167.835 110.052 167.558 110.389 167.2 110.619C166.561 110.948 165.802 110.562 165.191 110.185C160.735 107.423 156.279 104.45 151.2 103.131C150.894 103.092 150.613 102.943 150.409 102.711C150.339 102.565 150.299 102.407 150.292 102.246C150.284 102.085 150.308 101.924 150.363 101.772C150.868 99.5232 151.507 97.3012 151.904 95.0278C152.144 93.6713 151.7 90.4157 152.905 89.5747C154.18 88.6794 157.853 89.4363 159.362 89.4607L166.876 89.5882Z" fill="#A0616A"/>
<path d="M172.286 111.992C182.503 115.641 192.66 119.963 201.091 126.775C204.957 129.9 208.402 133.503 212.077 136.848C214.002 138.601 215.99 140.28 217.977 141.959L232.084 153.897C233.83 155.372 235.583 156.856 237.522 158.091C242.1 161.026 247.537 162.508 251.985 165.638C251.977 167.263 252.243 168.877 252.773 170.413C252.976 170.978 253.358 171.461 253.862 171.789C254.366 172.117 254.963 172.271 255.563 172.228C262.593 171.821 269.722 175.229 276.804 174.371C277.009 174.349 277.205 174.279 277.378 174.168C277.551 174.057 277.696 173.907 277.802 173.731C278.278 172.917 277.465 172.125 276.752 171.629L267.136 164.914C265.551 163.807 263.966 162.7 262.351 161.639C256.523 157.809 250.286 154.556 244.873 150.161C243.718 149.222 242.606 148.232 241.491 147.244C235.597 142.019 229.7 136.789 224.11 131.238C215.992 123.167 208.312 114.162 200.262 106.007C199.492 105.206 198.664 104.462 197.785 103.782C196.926 103.174 196.026 102.624 195.091 102.138L184.871 96.536C183.324 95.6868 181.609 94.8105 179.883 95.1442C179.455 95.038 179.008 95.0392 178.581 95.1476C178.154 95.256 177.76 95.4683 177.436 95.7655C176.778 96.3705 176.348 97.1735 175.913 97.9576C175.346 98.9062 174.898 99.9214 174.581 100.98C174.217 102.42 174.336 103.964 173.915 105.383C173.643 106.319 173.137 107.174 172.795 108.096C172.35 109.344 172.177 110.672 172.286 111.992Z" fill="#A0616A"/>
<path d="M175.677 112.833L176 108.137C176.093 106.824 176.185 105.495 176.59 104.244C177.05 102.825 177.887 101.563 178.738 100.337C179.192 99.6221 179.741 98.9715 180.369 98.4029C181.296 97.6242 182.495 97.201 183.36 96.3573C183.607 96.1158 183.838 95.7604 183.691 95.4484C183.624 95.3319 183.531 95.2318 183.42 95.1554C181.288 93.411 178.732 92.277 176.21 91.1619L171.441 89.0566C169.435 91.7696 167.393 94.5667 166.36 97.7843C166.204 98.3559 166.008 98.9161 165.775 99.4609C165.163 100.733 164.003 101.661 163.266 102.866C162.573 104 162.284 105.326 162.01 106.626C161.847 107.388 161.689 108.202 161.964 108.932C162.268 109.746 163.051 110.272 163.763 110.747C166.92 112.812 170.253 114.941 174.018 115.234C174.709 115.286 175.628 115.63 175.848 114.963C176.003 114.515 175.641 113.381 175.677 112.833Z" fill="#3F3D56"/>
<path d="M81.4492 126.029C80.2585 127.622 81.0578 129.941 82.292 131.501C83.5263 133.061 85.1766 134.369 85.8671 136.233C87.5228 140.69 82.9037 145.186 83.0614 149.928C83.2028 154.155 86.9464 157.218 90.13 160.026C96.8942 165.994 102.674 174.312 101.913 183.298C104.99 182.398 107.648 180.44 109.416 177.771C110.449 180.032 110.885 182.519 110.683 184.996C117.774 180.153 121.811 171.2 120.743 162.695C120.234 158.669 118.679 154.743 118.921 150.696C119.052 148.501 119.707 146.377 120.18 144.228C120.782 141.458 121.083 138.631 121.077 135.796C121.077 132.562 120.476 128.97 117.921 126.981C115.746 125.291 112.755 125.234 109.998 125.248C107.087 125.267 104.175 125.28 101.269 125.462C98.3024 125.647 95.2439 126.623 92.324 126.697C89.0725 126.778 84.4915 121.96 81.4492 126.029Z" fill="#3F3D56"/>
<path d="M124.924 104.794C123.001 105.427 121.27 106.535 119.892 108.015C119.024 108.953 118.307 110.025 117.407 110.934C116.336 112.019 115.028 112.833 113.775 113.701C111.379 115.356 109.136 117.214 106.896 119.07L95.8583 128.213C94.132 129.643 92.4056 131.075 90.7771 132.616C88.768 134.515 86.9138 136.588 84.7688 138.338C83.5127 139.363 82.1615 140.278 81.0088 141.42C79.9213 142.505 79.0405 143.756 78.1488 144.995C74.516 150.027 70.6135 154.86 66.4584 159.472C64.6939 161.433 62.8697 163.365 60.7246 164.898C56.2768 168.096 52.9002 172.885 48.9907 176.724C48.6591 177.049 48.2948 177.513 48.4987 177.934C48.6202 178.135 48.815 178.282 49.0424 178.343C51.9025 179.407 54.3656 174.776 57.3453 175.432C58.7046 175.731 59.5393 177.014 60.5126 177.993C61.4859 178.973 63.1552 179.694 64.1719 178.758C63.8236 176.034 64.1783 173.266 65.2023 170.717C66.8689 166.591 70.1748 163.338 73.7037 160.614C77.2326 157.89 81.0741 155.568 84.3882 152.586C89.9479 147.586 94.0096 140.766 100.605 137.236C103.188 135.853 106.043 135.044 108.617 133.628C113.601 130.877 117.086 126.032 119.81 121.048C120.131 120.365 120.565 119.74 121.093 119.2C121.662 118.754 122.294 118.394 122.969 118.134C126.472 116.521 129.615 114.223 132.213 111.376C131.397 110.793 130.633 110.169 129.82 109.583C129.159 109.146 128.553 108.629 128.018 108.045C127.474 107.404 127.121 106.637 126.658 105.937C126.196 105.237 125.712 105.047 124.924 104.794Z" fill="#A0616A"/>
<path d="M154.626 105.633C153.908 105.057 153.884 104.005 153.919 103.074C154.037 100.22 154.153 97.3671 154.267 94.5148C154.346 92.5045 154.539 90.2527 156.058 88.9342C151.663 88.0534 147.232 87.3779 142.764 86.9076C140.991 86.7204 139.194 86.5658 137.427 86.8235C135.299 87.1328 133.303 88.0227 131.34 88.9044C129.165 89.8811 126.977 90.8659 125.027 92.2359C124.277 92.8146 123.494 93.3508 122.684 93.842C121.205 94.6559 119.506 94.9272 117.912 95.4698C114.231 96.7198 111.153 99.3015 109.286 102.705C107.419 106.109 106.898 110.087 107.826 113.856C108.37 112.453 108.75 110.985 109.387 109.621C110.023 108.256 110.961 106.967 112.296 106.27C113.688 105.549 115.368 105.554 116.882 105.969C118.396 106.384 119.758 107.184 121.118 107.993C124.146 109.824 127.24 111.962 128.678 115.188C131.669 112.969 134.728 110.847 137.724 108.617C139.023 107.654 140.342 106.683 141.848 106.099C143.827 105.331 145.999 105.285 148.123 105.245C150.246 105.204 152.549 105.085 154.626 105.633Z" fill="#FF6584"/>
<path d="M107.815 113.596L107.454 118.601L108.759 117.527L108.106 113.099L107.815 113.596Z" fill="#FF6584"/>
<path d="M58.8133 49.3166L54.5939 51.9862L57.1549 47.3524C56.4291 46.7743 55.5307 46.4544 54.6021 46.4435H54.5341C54.2409 46.4478 53.948 46.426 53.6587 46.3784L52.2287 47.2846L52.8431 46.1722C51.8293 45.8187 50.9537 45.1539 50.3419 44.2732L47.7809 45.9009L49.3985 42.9682C47.9005 41.1749 45.8832 40.0762 43.6648 40.0762C41.0032 40.0762 38.6325 41.6551 37.1018 44.1158C36.6485 44.8542 36.0071 45.4594 35.2429 45.8698C34.4787 46.2801 33.6192 46.4809 32.7519 46.4517H32.6078C29.6689 46.4517 27.2874 49.7751 27.2874 53.8771C27.2874 57.9791 29.6689 61.3026 32.6078 61.3026C33.2544 61.2995 33.8905 61.1404 34.462 60.8386C35.4619 60.3536 36.5556 60.0912 37.6672 60.0696C38.7788 60.0481 39.8818 60.2679 40.8999 60.7138C41.7611 61.0983 42.694 61.2971 43.6376 61.2971C44.5811 61.2971 45.514 61.0983 46.3753 60.7138C47.3861 60.2766 48.4792 60.0614 49.5807 60.0829C50.6821 60.1045 51.766 60.3622 52.7588 60.8386C53.3244 61.134 53.9528 61.2894 54.5912 61.2917C57.5301 61.2917 59.9117 57.9656 59.9117 53.8663C59.9351 52.2816 59.5573 50.7168 58.8133 49.3166Z" fill="#F2F2F2"/>
<path opacity="0.03" d="M50.8615 60.182C49.3264 59.8903 47.7389 60.0622 46.3022 60.6757C45.4398 61.0572 44.5065 61.2532 43.5631 61.2509C42.6197 61.2485 41.6873 61.048 40.8268 60.6622C39.8085 60.2167 38.7054 59.9973 37.5938 60.0193C36.4822 60.0413 35.3886 60.3042 34.3889 60.7897C33.8171 61.0903 33.181 61.2485 32.5348 61.2509C29.9248 61.2509 27.7526 58.6274 27.3013 55.1657C27.8228 54.7864 28.2659 54.3102 28.6062 53.763C30.1342 51.3024 32.5076 49.7207 35.1692 49.7207C37.8308 49.7207 40.1716 51.2807 41.694 53.7169C42.1517 54.4542 42.793 55.0606 43.5553 55.477C44.3176 55.8935 45.175 56.1059 46.044 56.0935H46.1119C48.1863 56.0935 49.9861 57.7566 50.8615 60.182Z" fill="black"/>
<path d="M134.113 65.022L132.009 66.3433L133.287 64.0264C132.925 63.7375 132.477 63.578 132.014 63.5733H131.993C131.847 63.5748 131.702 63.5639 131.558 63.5408L130.843 63.9911L131.15 63.4485C130.644 63.2726 130.207 62.9411 129.902 62.5017L128.624 63.3156L129.44 61.8533C129.098 61.4118 128.662 61.0525 128.163 60.8018C127.663 60.5511 127.114 60.4153 126.555 60.4045C125.229 60.4045 124.046 61.1913 123.293 62.4203C123.066 62.7892 122.745 63.0914 122.363 63.2959C121.981 63.5004 121.551 63.5999 121.118 63.5842H121.047C119.582 63.5842 118.394 65.2418 118.394 67.2874C118.394 69.333 119.582 70.9906 121.047 70.9906C121.369 70.9892 121.687 70.9101 121.972 70.76C122.47 70.5167 123.015 70.3851 123.57 70.3743C124.125 70.3636 124.675 70.4739 125.182 70.6976C125.61 70.8884 126.073 70.9882 126.542 70.9906C127.01 70.9909 127.473 70.893 127.901 70.703C128.405 70.4848 128.95 70.3775 129.5 70.3882C130.049 70.399 130.59 70.5276 131.085 70.7654C131.368 70.9126 131.682 70.9898 132.001 70.9906C133.466 70.9906 134.654 69.333 134.654 67.2874C134.667 66.4989 134.481 65.7199 134.113 65.022Z" fill="#F2F2F2"/>
<path opacity="0.03" d="M130.147 70.4426C129.381 70.2974 128.59 70.3834 127.874 70.6895C127.445 70.8775 126.983 70.9754 126.514 70.9771C126.041 70.9775 125.573 70.8777 125.142 70.6841C124.634 70.4622 124.083 70.3531 123.529 70.3644C122.975 70.3756 122.429 70.5069 121.931 70.7492C121.646 70.8996 121.329 70.9788 121.006 70.9798C119.704 70.9798 118.622 69.6694 118.396 67.944C118.656 67.7545 118.877 67.5168 119.046 67.244C119.81 66.015 120.993 65.2283 122.309 65.2283C123.625 65.2283 124.804 66.0069 125.571 67.2196C125.8 67.5881 126.121 67.8913 126.502 68.0995C126.883 68.3077 127.312 68.414 127.746 68.4079H127.779C128.812 68.4025 129.712 69.2326 130.147 70.4426Z" fill="black"/>
<path d="M144.227 23.2992L147.606 25.4397L145.554 21.7148C146.135 21.2527 146.855 20.9969 147.598 20.9877H147.652C147.887 20.9898 148.122 20.9726 148.354 20.9361L149.501 21.6605L149.001 20.7652C149.812 20.483 150.513 19.9522 151.004 19.2487L153.057 20.5455L151.76 18.196C152.959 16.7582 154.577 15.8792 156.355 15.8792C158.489 15.8792 160.387 17.1434 161.613 19.1157C161.975 19.7059 162.488 20.1898 163.099 20.5181C163.71 20.8465 164.397 21.0075 165.09 20.985H165.204C167.559 20.985 169.467 23.6464 169.467 26.9346C169.467 30.2227 167.564 32.8814 165.204 32.8814C164.687 32.8797 164.178 32.7531 163.72 32.5124C162.918 32.1223 162.04 31.9112 161.148 31.8939C160.256 31.8765 159.371 32.0534 158.554 32.4121C157.86 32.7205 157.109 32.8804 156.349 32.8814C155.6 32.881 154.859 32.7238 154.174 32.4202C153.365 32.0703 152.489 31.8982 151.607 31.9155C150.724 31.9328 149.856 32.1392 149.061 32.5206C148.606 32.7558 148.102 32.8795 147.59 32.8814C145.235 32.8814 143.327 30.22 143.327 26.9346C143.317 25.6667 143.626 24.4166 144.227 23.2992Z" fill="#F2F2F2"/>
<path opacity="0.03" d="M150.589 32.0051C151.819 31.7713 153.091 31.9092 154.243 32.4012C154.932 32.7088 155.68 32.8678 156.435 32.8678C157.191 32.8678 157.938 32.7088 158.628 32.4012C159.445 32.0439 160.33 31.8679 161.222 31.8852C162.113 31.9026 162.991 32.1129 163.793 32.5016C164.25 32.7443 164.76 32.8719 165.278 32.8733C167.368 32.8733 169.108 30.7707 169.473 27.9899C169.054 27.6859 168.698 27.3035 168.426 26.864C167.2 24.8944 165.299 23.6274 163.168 23.6274C161.037 23.6274 159.158 24.8781 157.932 26.8288C157.565 27.417 157.053 27.9008 156.444 28.2335C155.836 28.5662 155.151 28.7365 154.457 28.7279H154.403C152.734 28.7306 151.295 30.0626 150.589 32.0051Z" fill="black"/>
<path d="M88.151 84.0889C88.0096 83.8746 87.3163 84.0889 86.604 84.5529C86.479 84.637 86.3593 84.7238 86.2506 84.8106C85.7549 84.5538 85.2204 84.3797 84.6683 84.2951L84.6982 84.2734C85.4171 83.8033 86.0834 83.2576 86.6856 82.6456H85.155L87.3761 81.7938C87.648 81.3624 87.735 81.0016 87.5855 80.7764C87.1831 80.1741 85.242 80.7547 83.2356 82.0786C82.3315 82.6538 81.5187 83.3607 80.8241 84.1758C79.1929 84.3657 78.0483 84.8432 78.0483 85.3993C78.0483 85.7846 78.592 86.1318 79.4756 86.3733L79.424 86.4058C77.4284 87.7271 76.1343 89.2897 76.5367 89.892C76.8901 90.4346 78.4398 90.0331 80.1743 89.0266L79.0243 88.484L80.8377 88.6088L80.8757 88.5844C81.0688 88.4568 81.2536 88.3266 81.4331 88.1964L80.0737 87.567L82.0665 87.7026C82.4438 87.391 82.7964 87.0509 83.1214 86.6853C84.9782 86.5876 86.43 86.1427 86.6829 85.5675C86.8372 85.4975 86.9879 85.4197 87.1342 85.3342C87.3898 85.1684 87.6268 84.9756 87.841 84.7591H87.2973L88.0884 84.4552C88.1754 84.2978 88.2053 84.1703 88.151 84.0889Z" fill="#F2F2F2"/>
<path d="M35.3376 166.499C35.3439 167.427 35.2528 168.354 35.0657 169.263C35.0276 169.434 34.9896 169.602 34.9515 169.765C33.9375 173.821 31.0774 176.789 27.6654 176.979C27.5512 176.979 27.437 176.979 27.3174 176.979C23.7097 176.979 20.6593 173.872 19.6507 169.594C19.6235 169.48 19.5991 169.366 19.5719 169.252C19.3802 168.343 19.2845 167.417 19.2864 166.488C19.2864 160.693 22.8832 155.997 27.3174 155.997C31.7516 155.997 35.3376 160.704 35.3376 166.499Z" fill="#3F3D56"/>
<path opacity="0.1" d="M35.3376 166.499C35.3439 167.427 35.2528 168.354 35.0657 169.263C35.0276 169.434 34.9896 169.602 34.9515 169.765C34.8292 169.765 34.7123 169.765 34.5899 169.752C33.7062 169.702 32.8279 169.582 31.9637 169.391C31.1972 169.63 30.4138 169.811 29.6202 169.933C29.0122 170.025 28.3995 170.082 27.785 170.104C27.5784 170.104 27.3718 170.104 27.1652 170.104C26.4296 170.105 25.6948 170.056 24.9658 169.958C23.7875 169.801 22.6304 169.515 21.5157 169.103C20.9043 169.306 20.2816 169.472 19.6507 169.602C19.6235 169.488 19.5991 169.374 19.5719 169.26C19.3802 168.351 19.2845 167.425 19.2864 166.496C19.2864 160.701 22.8832 156.005 27.3174 156.005C31.7516 156.005 35.3376 160.704 35.3376 166.499Z" fill="black"/>
<path d="M52.471 146.954C52.4721 144.41 51.8733 141.9 50.7228 139.629L41.2754 142.562L49.5674 137.695C48.1774 135.689 46.3537 134.021 44.231 132.813C42.1083 131.606 39.7408 130.889 37.3034 130.717C36.9141 130.122 36.4863 129.553 36.0229 129.013L22.4457 133.227L33.576 126.71C31.4491 125.08 28.9522 123.998 26.3063 123.56C23.6605 123.123 20.9473 123.343 18.4071 124.201C15.8669 125.06 13.578 126.53 11.743 128.482C9.90804 130.434 8.58365 132.807 7.88709 135.391L19.5095 148.739L6.88933 139.645C3.68363 141.9 1.39841 145.231 0.451631 149.029C-0.495153 152.827 -0.0402223 156.838 1.73322 160.329C3.50666 163.819 6.48007 166.556 10.1096 168.039C13.7392 169.522 17.7824 169.651 21.4996 168.403C24.8577 169.631 28.5261 169.728 31.9448 168.68C34.3299 169.203 36.802 169.186 39.1796 168.63C41.5572 168.074 43.7796 166.993 45.6835 165.467C47.5874 163.941 49.1244 162.009 50.1814 159.812C51.2384 157.616 51.7885 155.21 51.7913 152.774C51.7913 152.41 51.7777 152.052 51.7532 151.688C52.2253 150.154 52.4672 148.559 52.471 146.954Z" fill="#57B894"/>
<path opacity="0.1" d="M52.1879 149.976C47.1999 149.034 42.0852 148.969 37.0747 149.784C31.4035 150.722 25.6072 152.782 20.0611 151.276C16.7986 150.391 13.9875 148.349 10.8175 147.206C7.7466 146.14 4.43883 145.946 1.26403 146.648C0.0530338 149.535 -0.298912 152.71 0.250269 155.792C0.79945 158.874 2.22652 161.733 4.36085 164.027C6.49518 166.321 9.24645 167.953 12.2857 168.728C15.325 169.503 18.5237 169.389 21.4993 168.398C24.8568 169.627 28.5252 169.726 31.9445 168.68C34.3295 169.203 36.8017 169.186 39.1793 168.63C41.5568 168.074 43.7793 166.993 45.6832 165.467C47.5871 163.941 49.1241 162.009 50.1811 159.812C51.238 157.616 51.7882 155.21 51.791 152.774C51.791 152.41 51.7774 152.052 51.7529 151.688C51.9303 151.126 52.0755 150.555 52.1879 149.976Z" fill="black"/>
</g>
<defs>
<clipPath id="clip0">
<rect width="289" height="194" fill="white"/>
</clipPath>
</defs>
</svg>
