<svg width="184" height="189" viewBox="0 0 184 189" fill="none" xmlns="http://www.w3.org/2000/svg">
<g clip-path="url(#clip0)">
<path d="M150.686 52.1135C150.686 52.1135 147.237 54.1041 148.299 56.891C148.299 56.891 151.88 57.9527 153.339 60.6068C154.798 63.261 166.074 72.8159 166.074 72.8159L174.298 68.702C174.298 68.702 171.437 64.881 162.388 62.2131C162.388 62.2131 157.054 56.4929 155.196 55.4312C153.339 54.3695 150.686 52.1135 150.686 52.1135Z" fill="#CBCDDA"/>
<path opacity="0.05" d="M150.686 52.1135C150.686 52.1135 147.237 54.1041 148.299 56.891C148.299 56.891 151.88 57.9527 153.339 60.6068C154.798 63.261 166.074 72.8159 166.074 72.8159L174.298 68.702C174.298 68.702 171.437 64.881 162.388 62.2131C162.388 62.2131 157.054 56.4929 155.196 55.4312C153.339 54.3695 150.686 52.1135 150.686 52.1135Z" fill="black"/>
<path opacity="0.1" d="M31.4445 179.149C29.6736 179.587 27.8212 179.076 25.9972 179.055C24.1732 179.033 22.0451 179.8 21.5981 181.569C20.9976 183.945 23.7744 185.737 26.152 186.329C35.3798 188.627 45.1482 185.644 54.5795 186.861C58.5539 187.373 62.4189 188.628 66.415 188.927C75.5616 189.611 84.4984 185.26 93.6574 185.75C98.246 185.996 102.706 187.454 107.295 187.688C118.275 188.247 129.108 181.799 139.857 184.109C142.893 184.762 145.742 186.092 148.75 186.862C156.353 188.81 164.358 187.074 172.012 185.337C173.532 184.992 175.364 184.321 175.552 182.773C175.758 181.065 173.798 179.994 172.167 179.448C154.333 173.481 135.239 170.32 116.637 173.078C112.404 173.706 108.183 174.639 103.904 174.577C94.4328 174.441 85.73 169.498 76.4322 167.69C58.8144 164.265 41.1995 172.257 25.0261 180.04" fill="#FFB9B9"/>
<path d="M55.8629 128.515H50.4695V174.132C50.4695 174.132 85.2814 185.414 119.113 174.132V128.515H55.8629Z" fill="#3F3D56"/>
<path d="M84.3005 133.91C102.985 133.91 118.132 131.604 118.132 128.76C118.132 125.916 102.985 123.61 84.3005 123.61C65.616 123.61 50.4692 125.916 50.4692 128.76C50.4692 131.604 65.616 133.91 84.3005 133.91Z" fill="#3F3D56"/>
<path opacity="0.1" d="M84.3005 133.91C102.985 133.91 118.132 131.604 118.132 128.76C118.132 125.916 102.985 123.61 84.3005 123.61C65.616 123.61 50.4692 125.916 50.4692 128.76C50.4692 131.604 65.616 133.91 84.3005 133.91Z" fill="black"/>
<path d="M123.627 74.0118C115.093 105.574 85.8601 125.121 85.8601 125.121C85.8601 125.121 70.4647 93.496 78.9992 61.934C87.5337 30.3721 116.766 10.825 116.766 10.825C116.766 10.825 132.162 42.4499 123.627 74.0118Z" fill="#3F3D56"/>
<path d="M45.987 74.0118C54.5215 105.574 83.7541 125.121 83.7541 125.121C83.7541 125.121 99.1496 93.496 90.6151 61.934C82.0806 30.3721 52.8479 10.825 52.8479 10.825C52.8479 10.825 37.4524 42.4499 45.987 74.0118Z" fill="#FFB9B9"/>
<path d="M58.5278 67.2288C81.9467 90.0357 84.8071 125.095 84.8071 125.095C84.8071 125.095 49.6981 123.177 26.2793 100.37C2.86044 77.5636 0 42.5042 0 42.5042C0 42.5042 35.109 44.4219 58.5278 67.2288Z" fill="#3F3D56"/>
<path d="M111.086 67.2288C87.6676 90.0357 84.8071 125.095 84.8071 125.095C84.8071 125.095 119.916 123.177 143.335 100.37C166.754 77.5636 169.614 42.5042 169.614 42.5042C169.614 42.5042 134.505 44.4219 111.086 67.2288Z" fill="#3F3D56"/>
<path d="M84.7909 21.5826C90.7483 21.5826 95.5777 16.7512 95.5777 10.7913C95.5777 4.83144 90.7483 0 84.7909 0C78.8336 0 74.0042 4.83144 74.0042 10.7913C74.0042 16.7512 78.8336 21.5826 84.7909 21.5826Z" fill="#FFB9B9"/>
<path d="M20.197 87.2132C20.9618 89.9897 23.6191 91.6789 23.6191 91.6789C23.6191 91.6789 25.0363 88.8664 24.2715 86.0899C23.5066 83.3134 20.8494 81.6243 20.8494 81.6243C20.8494 81.6243 19.4321 84.4367 20.197 87.2132Z" fill="#FFB9B9"/>
<path d="M34.5128 102.676C33.6896 105.436 35.0471 108.278 35.0471 108.278C35.0471 108.278 37.7394 106.645 38.5627 103.885C39.386 101.125 38.0284 98.2837 38.0284 98.2837C38.0284 98.2837 35.3361 99.9163 34.5128 102.676Z" fill="#FFB9B9"/>
<path d="M137.773 120.429C135.752 122.48 135.619 125.627 135.619 125.627C135.619 125.627 138.762 125.448 140.783 123.397C142.804 121.345 142.936 118.198 142.936 118.198C142.936 118.198 139.793 118.378 137.773 120.429Z" fill="#FFB9B9"/>
<path d="M172.176 165.313C172.176 165.313 172.574 171.153 173.237 171.816C173.9 172.48 167.268 172.878 167.268 172.878L168.196 165.313H172.176Z" fill="#FFB9B9"/>
<path opacity="0.05" d="M172.176 165.313C172.176 165.313 172.574 171.153 173.237 171.816C173.9 172.48 167.268 172.878 167.268 172.878L168.196 165.313H172.176Z" fill="black"/>
<path d="M173.635 169.825C173.635 169.825 172.707 169.825 169.39 171.551C169.39 171.551 167.135 171.153 166.207 167.968C166.207 167.968 163.421 172.745 161.564 173.01C159.707 173.276 156.125 173.541 158.513 176.726C160.9 179.911 174.962 178.451 174.962 178.451C174.962 178.451 175.36 170.754 173.635 169.825Z" fill="#CBCDDA"/>
<path opacity="0.05" d="M173.635 169.825C173.635 169.825 172.707 169.825 169.39 171.551C169.39 171.551 167.135 171.153 166.207 167.968C166.207 167.968 163.421 172.745 161.564 173.01C159.707 173.276 156.125 173.541 158.513 176.726C160.9 179.911 174.962 178.451 174.962 178.451C174.962 178.451 175.36 170.754 173.635 169.825Z" fill="black"/>
<path d="M171.645 174.337L170.717 176.859L164.615 175.134L164.962 172.631L165.046 172.027L165.278 170.356C165.278 170.356 170.451 169.029 170.451 169.693C170.521 170.24 170.635 170.78 170.791 171.309C171.003 172.125 171.27 173.055 171.449 173.667C171.566 174.072 171.645 174.337 171.645 174.337Z" fill="#FFB9B9"/>
<path d="M168.316 139.727C167.898 140.435 167.424 141.762 168.304 143.42C168.564 143.9 168.885 144.345 169.258 144.744C172.176 147.929 172.972 155.095 172.972 155.095V166.64L170.982 166.793L167.798 167.039L163.023 147.398C163.023 147.398 160.237 133.065 161.564 130.544C162.89 128.022 164.084 112.23 164.084 112.23L165.185 111.089L167.798 108.382H175.36C175.964 108.816 176.467 109.378 176.831 110.027C178.1 112.129 179.24 116.501 175.757 124.572C170.319 137.179 168.727 139.17 168.727 139.17C168.569 139.339 168.431 139.526 168.316 139.727Z" fill="#4C4C78"/>
<path opacity="0.05" d="M168.316 139.727C167.898 140.435 167.424 141.762 168.304 143.42C168.564 143.9 168.885 144.345 169.258 144.744C172.176 147.929 172.972 155.095 172.972 155.095V166.64L170.982 166.793L167.798 167.039L163.023 147.398C163.023 147.398 160.237 133.065 161.564 130.544C162.89 128.022 164.084 112.23 164.084 112.23L165.185 111.089L167.798 108.382H175.36C175.964 108.816 176.467 109.378 176.831 110.027C178.1 112.129 179.24 116.501 175.757 124.572C170.319 137.179 168.727 139.17 168.727 139.17C168.569 139.339 168.431 139.526 168.316 139.727Z" fill="black"/>
<path opacity="0.1" d="M170.791 171.309L165.046 172.027L165.278 170.356C165.278 170.356 170.451 169.029 170.451 169.693C170.521 170.24 170.635 170.78 170.791 171.309Z" fill="black"/>
<path d="M167.931 122.714C167.931 122.714 168.261 133.161 168.316 139.727C168.328 141.212 168.326 142.5 168.304 143.421C168.311 143.908 168.275 144.395 168.196 144.876C167.798 146.071 168.594 148.725 168.594 148.725C171.911 157.484 170.982 165.181 170.982 165.181V171.02L164.615 171.816C164.615 171.816 165.676 171.02 162.758 163.323C161.081 158.901 160.717 154.568 160.712 151.68C160.697 150.1 160.381 148.537 159.781 147.074C159.597 146.581 159.483 146.065 159.441 145.54C159.176 142.886 157.982 139.568 157.982 139.568C157.982 139.568 154.798 130.146 154.003 123.245C153.635 119.96 153.697 116.642 154.187 113.373C154.304 112.542 154.464 111.718 154.666 110.903C154.666 110.903 167.634 102.739 172.53 108.382C173.001 108.934 173.375 109.562 173.635 110.24C173.904 110.909 174.114 111.601 174.261 112.307C175.785 119.796 167.931 122.714 167.931 122.714Z" fill="#4C4C78"/>
<path d="M167.533 64.588C171.27 64.588 174.299 61.5578 174.299 57.8199C174.299 54.0819 171.27 51.0518 167.533 51.0518C163.797 51.0518 160.768 54.0819 160.768 57.8199C160.768 61.5578 163.797 64.588 167.533 64.588Z" fill="#FFB9B9"/>
<path d="M163.819 62.0667C163.819 62.0667 166.604 69.8964 163.819 74.0104C161.033 78.1243 172.706 76.7972 172.706 76.7972L177.217 71.3562C177.217 71.3562 171.911 71.3562 171.645 62.0667C171.38 52.7771 163.819 62.0667 163.819 62.0667Z" fill="#FFB9B9"/>
<path opacity="0.1" d="M177.217 111.567C176.255 111.9 175.266 112.147 174.261 112.307C172.61 112.562 170.661 112.571 169.523 111.567C168.848 110.971 167.184 110.898 165.185 111.089C160.975 111.492 155.276 113.064 154.187 113.373C154.304 112.542 154.464 111.718 154.666 110.903C154.666 110.903 167.634 102.739 172.53 108.382H175.36C175.964 108.816 176.467 109.378 176.831 110.027C177.075 111.084 177.217 111.567 177.217 111.567Z" fill="black"/>
<path opacity="0.1" d="M171.645 174.337L170.717 176.859L164.615 175.134L164.962 172.631C166.01 174.951 167.798 175.266 167.798 175.266C169.727 174.263 170.848 173.844 171.449 173.667C171.566 174.072 171.645 174.337 171.645 174.337Z" fill="black"/>
<path d="M172.043 173.674C172.043 173.674 171.115 173.674 167.798 175.399C167.798 175.399 165.543 175.001 164.615 171.816C164.615 171.816 161.829 176.593 159.972 176.859C158.115 177.124 154.533 177.39 156.921 180.575C159.309 183.76 173.37 182.3 173.37 182.3C173.37 182.3 173.768 174.603 172.043 173.674Z" fill="#CBCDDA"/>
<path d="M140.572 59.1161C140.572 59.1161 140.831 53.9474 146.261 54.4533C146.413 54.4677 146.559 54.5194 146.686 54.6038C146.813 54.6882 146.918 54.8027 146.99 54.9372C147.063 55.0717 147.101 55.2219 147.101 55.3747C147.102 55.5274 147.065 55.6779 146.993 55.8128L145.88 57.9092L140.572 59.1161Z" fill="#FFB9B9"/>
<path d="M171.911 72.9485C171.911 72.9485 165.411 71.8869 163.686 70.5598C163.686 70.5598 162.36 73.0812 159.972 71.7541C157.584 70.4271 152.013 70.5598 152.013 70.5598C152.013 70.5598 147.37 68.0383 146.441 62.3319C146.441 62.3319 145.513 58.8815 145.778 57.9525C145.778 57.9525 142.329 54.3694 140.605 59.1469C141.268 62.4646 141.799 62.1992 141.666 64.8533L143.788 70.6925C143.788 70.6925 143.921 72.6831 147.768 75.3372C151.615 77.9914 155.992 82.1053 155.992 82.1053C155.992 82.1053 153.671 83.3661 154.533 89.1389C155.587 96.1947 154.003 106.258 154.003 106.258V112.761C154.003 112.761 167.268 108.912 169.523 110.903C171.778 112.894 177.217 110.903 177.217 110.903C177.217 110.903 176.553 108.647 175.625 103.206C174.696 97.7649 175.758 92.4566 175.758 92.4566C175.758 92.4566 179.207 83.2997 180.798 79.5839C182.39 75.8681 179.604 70.8252 176.819 68.9673C174.033 67.1093 172.996 68.2248 172.996 68.2248C172.996 68.2248 177.88 71.7541 171.911 72.9485Z" fill="#CBCDDA"/>
<path opacity="0.1" d="M160.216 56.1647C160.214 56.441 160.261 56.7154 160.354 56.9755C160.509 57.2714 160.72 57.5342 160.976 57.7488C161.97 58.72 162.841 59.8741 163.191 61.2189C163.427 62.1294 163.414 63.0836 163.4 64.0243C163.342 67.8347 163.183 71.9475 160.83 74.9447C159.966 76.0463 158.854 76.9223 157.81 77.8545C157.664 77.9616 157.553 78.1096 157.492 78.2797C157.464 78.4609 157.498 78.6464 157.591 78.8049C158.075 79.8136 159.098 80.4323 160.066 80.9937C160.508 81.2503 160.974 81.5139 161.485 81.5305C162.691 81.5696 163.488 80.295 164.586 79.7935C166.184 79.0636 167.977 80.0796 169.563 80.835C170.712 81.382 171.917 81.8024 173.157 82.0887C174.855 82.4805 176.774 82.5767 178.204 81.58C179.03 80.9976 179.595 80.1137 179.776 79.1189C179.891 78.4704 179.873 77.7176 180.364 77.2785C180.616 77.0524 180.961 76.9585 181.235 76.7579C181.659 76.447 181.861 75.9237 182.042 75.4296L183.676 70.9599C183.887 70.4876 183.995 69.976 183.995 69.4587C183.917 68.3825 182.924 67.6012 181.928 67.1874C180.932 66.7736 179.83 66.5696 178.954 65.94C177.473 64.8752 177.016 62.8869 176.883 61.067C176.792 59.8171 176.8 58.562 176.91 57.3135C177.071 55.4621 177.433 53.4907 176.61 51.8247C175.731 50.0454 173.758 49.1369 171.932 48.3617C171.23 48.064 170.51 47.7619 169.749 47.7283C168.943 47.6927 168.159 47.9605 167.397 48.2247C166.187 48.6446 164.959 49.1883 163.709 49.4731C163.007 49.6331 162.238 49.5134 161.561 49.7674C159.074 50.7007 160.216 54.1613 160.216 56.1647Z" fill="black"/>
<path d="M160.216 55.8993C160.214 56.1756 160.261 56.45 160.354 56.7101C160.509 57.006 160.72 57.2688 160.976 57.4834C161.97 58.4546 162.841 59.6087 163.191 60.9535C163.427 61.864 163.414 62.8182 163.4 63.7589C163.342 67.5693 163.183 71.6821 160.83 74.6793C159.966 75.7809 158.854 76.6569 157.81 77.5891C157.664 77.6962 157.553 77.8442 157.492 78.0143C157.464 78.1955 157.498 78.381 157.591 78.5395C158.075 79.5482 159.098 80.1669 160.066 80.7283C160.508 80.9849 160.974 81.2485 161.485 81.2651C162.691 81.3042 163.488 80.0296 164.586 79.5281C166.184 78.7982 167.977 79.8142 169.563 80.5696C170.712 81.1166 171.917 81.537 173.157 81.8233C174.855 82.2151 176.774 82.3114 178.204 81.3146C179.03 80.7322 179.595 79.8483 179.776 78.8535C179.891 78.205 179.873 77.4522 180.364 77.0132C180.616 76.787 180.961 76.6931 181.235 76.4926C181.659 76.1816 181.861 75.6583 182.042 75.1642L183.676 70.6945C183.887 70.2222 183.995 69.7106 183.995 69.1933C183.917 68.1171 182.924 67.3358 181.928 66.922C180.932 66.5082 179.83 66.3042 178.954 65.6746C177.473 64.6098 177.016 62.6215 176.883 60.8016C176.792 59.5517 176.8 58.2966 176.91 57.0481C177.071 55.1967 177.433 53.2253 176.61 51.5593C175.731 49.78 173.758 48.8715 171.932 48.0963C171.23 47.7986 170.51 47.4965 169.749 47.4629C168.943 47.4273 168.159 47.6951 167.397 47.9593C166.187 48.3792 164.959 48.9229 163.709 49.2077C163.007 49.3677 162.238 49.248 161.561 49.502C159.074 50.4353 160.216 53.8959 160.216 55.8993Z" fill="#B96B6B"/>
<path opacity="0.05" d="M154.868 92.1161C154.868 92.1161 155.926 91.8596 161.232 91.0634C166.538 90.2671 175.824 92.125 175.824 92.125" fill="black"/>
<path d="M9.06637 113.938C9.83121 116.714 12.4885 118.403 12.4885 118.403C12.4885 118.403 13.9057 115.591 13.1409 112.814C12.376 110.038 9.71875 108.349 9.71875 108.349C9.71875 108.349 8.30152 111.161 9.06637 113.938Z" fill="#FFB9B9"/>
</g>
<defs>
<clipPath id="clip0">
<rect width="184" height="189" fill="white"/>
</clipPath>
</defs>
</svg>
