<svg width="325" height="208" viewBox="0 0 325 208" fill="none" xmlns="http://www.w3.org/2000/svg">
<g clip-path="url(#clip0)">
<path d="M88.2776 69.7482C102.582 69.7482 114.178 58.1743 114.178 43.8972C114.178 29.62 102.582 18.0461 88.2776 18.0461C73.9731 18.0461 62.377 29.62 62.377 43.8972C62.377 58.1743 73.9731 69.7482 88.2776 69.7482Z" fill="#FF6584"/>
<path d="M225.941 150.842H14.5317L90.52 42.4027L120.235 0L142.854 32.2748L225.941 150.842Z" fill="#F2F2F2"/>
<path d="M216.706 41.0642L139.777 150.842H293.636L216.706 41.0642L139.777 150.842H293.636L216.706 41.0642Z" fill="#F2F2F2"/>
<path d="M120.235 0L121.984 30.4404L116.204 74.2437C116.204 74.2437 163.949 99.3325 164.077 100.476C164.206 101.619 154.02 133.786 154.02 133.786L225.941 150.842L120.235 0Z" fill="#E6E6E6"/>
<path d="M216.707 41.0642L229.249 70.5194L251.487 115.076L264.651 121.793C264.651 121.793 263.788 132.227 263.847 133.567C263.905 134.907 293.636 150.842 293.636 150.842L216.707 41.0642Z" fill="#E6E6E6"/>
<path d="M324.645 150.843H0.354804C0.260704 150.843 0.170458 150.805 0.103919 150.739C0.0373807 150.672 0 150.582 0 150.488C0 150.394 0.0373807 150.304 0.103919 150.238C0.170458 150.172 0.260704 150.134 0.354804 150.134H324.645C324.739 150.134 324.83 150.172 324.896 150.238C324.963 150.304 325 150.394 325 150.488C325 150.582 324.963 150.672 324.896 150.739C324.83 150.805 324.739 150.843 324.645 150.843Z" fill="#CCCCCC"/>
<path d="M71.8729 129.889C87.2035 129.889 99.6315 117.485 99.6315 102.183C99.6315 86.8822 87.2035 74.478 71.8729 74.478C56.5422 74.478 44.1143 86.8822 44.1143 102.183C44.1143 117.485 56.5422 129.889 71.8729 129.889Z" fill="#CCCCCC"/>
<path opacity="0.2" d="M51.3768 83.6782C48.7875 89.7233 48.4363 96.4904 50.3858 102.77C52.3353 109.05 56.4586 114.433 62.0188 117.958C67.579 121.483 74.2138 122.92 80.7376 122.012C87.2614 121.103 93.2491 117.91 97.6308 113.001C96.0491 116.694 93.6818 120 90.6929 122.69C87.704 125.379 84.1649 127.388 80.321 128.577C76.477 129.766 72.4201 130.106 68.4312 129.575C64.4423 129.043 60.6168 127.653 57.2198 125.499C53.8229 123.346 50.9356 120.481 48.7581 117.103C46.5806 113.725 45.1649 109.915 44.6091 105.937C44.0533 101.959 44.3707 97.9081 45.5392 94.0646C46.7078 90.2211 48.6997 86.6771 51.3768 83.6782Z" fill="black"/>
<path d="M71.9489 102.183H72.0256L73.3979 180.732H70.5002L71.9489 102.183Z" fill="#3F3D56"/>
<path d="M107.708 164.305C120.883 164.305 131.564 153.645 131.564 140.495C131.564 127.345 120.883 116.685 107.708 116.685C94.5326 116.685 83.8521 127.345 83.8521 140.495C83.8521 153.645 94.5326 164.305 107.708 164.305Z" fill="#FFB9B9"/>
<path opacity="0.2" d="M90.0937 124.592C87.8684 129.787 87.5666 135.603 89.242 140.999C90.9174 146.396 94.4609 151.023 99.2394 154.052C104.018 157.081 109.72 158.316 115.326 157.536C120.933 156.755 126.079 154.01 129.844 149.792C128.485 152.966 126.451 155.807 123.882 158.118C121.313 160.43 118.272 162.156 114.968 163.178C111.665 164.199 108.178 164.492 104.75 164.035C101.322 163.579 98.0345 162.383 95.1152 160.533C92.1958 158.682 89.7145 156.22 87.8431 153.317C85.9718 150.414 84.7551 147.14 84.2775 143.721C83.7998 140.302 84.0726 136.821 85.0769 133.518C86.0811 130.215 87.7929 127.169 90.0937 124.592Z" fill="black"/>
<path d="M107.773 140.495H107.839L109.019 208H106.528L107.773 140.495Z" fill="#3F3D56"/>
<path d="M140.162 104.619C158.628 104.619 173.597 89.6781 173.597 71.248C173.597 52.8178 158.628 37.8772 140.162 37.8772C121.697 37.8772 106.727 52.8178 106.727 71.248C106.727 89.6781 121.697 104.619 140.162 104.619Z" fill="#FFB9B9"/>
<path opacity="0.2" d="M164.849 48.9587C167.968 56.24 168.391 64.3909 166.043 71.9548C163.695 79.5187 158.728 86.0029 152.031 90.2485C145.334 94.4942 137.342 96.2247 129.485 95.1308C121.627 94.0369 114.415 90.19 109.137 84.2774C111.042 88.7259 113.894 92.7079 117.494 95.9473C121.094 99.1868 125.356 101.606 129.986 103.038C134.616 104.47 139.503 104.88 144.308 104.24C149.112 103.6 153.72 101.925 157.811 99.3315C161.903 96.7376 165.381 93.2869 168.004 89.2184C170.626 85.1499 172.331 80.561 173.001 75.7694C173.67 70.9779 173.288 66.0984 171.881 61.4689C170.473 56.8395 168.074 52.5709 164.849 48.9587Z" fill="black"/>
<path d="M140.07 71.248H139.979L138.325 165.86H141.816L140.07 71.248Z" fill="#3F3D56"/>
<path d="M191.155 41.2865L195.695 37.6626C192.168 37.2742 190.719 39.1939 190.126 40.7133C187.371 39.5715 184.371 41.0679 184.371 41.0679L193.454 44.3591C192.996 43.1375 192.198 42.0717 191.155 41.2865Z" fill="#3F3D56"/>
<path d="M197.039 13.0418L201.579 9.41794C198.052 9.0296 196.603 10.9493 196.01 12.4687C193.255 11.3269 190.255 12.8233 190.255 12.8233L199.338 16.1144C198.88 14.8929 198.082 13.827 197.039 13.0418Z" fill="#3F3D56"/>
<path d="M229.726 42.7716L234.266 39.1477C230.739 38.7593 229.29 40.679 228.697 42.1984C225.942 41.0566 222.942 42.5531 222.942 42.5531L232.025 45.8442C231.567 44.6226 230.77 43.5568 229.726 42.7716Z" fill="#3F3D56"/>
<path d="M240.401 202.464C240.401 202.464 240.575 198.832 244.136 199.254L240.401 202.464Z" fill="#3F3D56"/>
<path d="M255.494 202.464C255.494 202.464 255.667 198.832 259.228 199.254L255.494 202.464Z" fill="#3F3D56"/>
<path d="M248.451 202.464C248.451 202.464 248.624 198.832 252.185 199.254L248.451 202.464Z" fill="#3F3D56"/>
<path d="M233.922 202.464C233.922 202.464 233.748 198.832 230.188 199.254L233.922 202.464Z" fill="#3F3D56"/>
<path d="M249.014 202.715C249.014 202.715 248.841 199.083 245.28 199.505L249.014 202.715Z" fill="#3F3D56"/>
<path d="M186.639 149.92L186.285 150.154L212.968 190.503L213.322 190.27L186.639 149.92Z" fill="#2F2E41"/>
<path d="M170.647 199.395L173.25 199.395L174.489 189.371L170.646 189.371L170.647 199.395Z" fill="#A0616A"/>
<path d="M169.982 198.547L175.11 198.546H175.11C175.977 198.546 176.808 198.89 177.421 199.502C178.034 200.113 178.378 200.943 178.378 201.808V201.914L169.982 201.914L169.982 198.547Z" fill="#2F2E41"/>
<path d="M153.63 196.908L156.076 197.797L160.676 188.8L157.064 187.489L153.63 196.908Z" fill="#A0616A"/>
<path d="M153.296 195.884L158.115 197.634L158.115 197.634C158.929 197.93 159.592 198.537 159.959 199.321C160.325 200.105 160.364 201.002 160.068 201.815L160.031 201.914L152.142 199.048L153.296 195.884Z" fill="#2F2E41"/>
<path d="M169.904 130.962L175.426 132.658L179.886 140.077L178.187 148.768L177.337 156.399V190.315C177.337 190.315 170.802 192.011 168.017 190.315L169.055 170.601L162.046 191.587L154.188 188.619L163.108 159.155C162.964 156.976 163.33 154.794 164.175 152.78C164.941 150.986 166.284 149.5 167.993 148.556V146.86L166.294 136.05L169.904 130.962Z" fill="#2F2E41"/>
<path d="M174.09 130.106C176.97 130.106 179.306 127.775 179.306 124.9C179.306 122.025 176.97 119.694 174.09 119.694C171.209 119.694 168.873 122.025 168.873 124.9C168.873 127.775 171.209 130.106 174.09 130.106Z" fill="#A0616A"/>
<path d="M179.125 123.543C178.419 123.402 177.687 123.485 177.03 123.78C176.373 124.075 175.825 124.567 175.462 125.188C175.283 124.529 174.218 124.563 173.824 125.121C173.43 125.679 173.518 126.433 173.645 127.103C173.773 127.774 173.918 128.502 173.608 129.111C173.442 129.395 173.204 129.63 172.918 129.793C172.632 129.955 172.307 130.039 171.978 130.036C171.318 130.02 170.676 129.816 170.127 129.448C169.106 128.821 168.29 127.911 167.777 126.829C167.264 125.747 167.078 124.54 167.24 123.354C167.402 122.168 167.906 121.055 168.691 120.15C169.475 119.245 170.506 118.587 171.658 118.256C172.948 117.886 174.316 117.943 175.656 118.017C176.747 118.019 177.83 118.208 178.858 118.577C179.861 119 180.752 119.843 180.938 120.915C181.123 121.986 180.494 123.905 179.409 123.999" fill="#2F2E41"/>
<path d="M170.903 118.988C171.376 118.909 171.835 118.763 172.266 118.552C172.479 118.448 172.666 118.297 172.814 118.112C172.963 117.927 173.068 117.712 173.124 117.482C173.168 117.252 173.124 117.014 173.002 116.815C172.88 116.615 172.688 116.468 172.463 116.402C172.119 116.373 171.774 116.43 171.457 116.568C171.3 116.635 171.128 116.662 170.957 116.645C170.787 116.629 170.623 116.57 170.481 116.473C170.201 116.211 170.268 115.736 170.028 115.438C169.899 115.308 169.734 115.221 169.554 115.188C169.375 115.155 169.189 115.177 169.022 115.252C168.689 115.406 168.392 115.628 168.149 115.903L166.864 117.174C166.614 117.421 166.343 117.728 166.407 118.066C166.465 118.239 166.586 118.385 166.745 118.476C166.905 118.566 167.092 118.595 167.271 118.557C167.635 118.474 167.972 118.302 168.253 118.058C167.85 118.308 167.526 118.667 167.316 119.092C167.216 119.302 167.176 119.535 167.201 119.766C167.225 119.997 167.313 120.217 167.455 120.401C167.914 120.929 168.784 120.857 169.452 120.593C170.335 120.244 171.1 119.651 171.655 118.882" fill="#2F2E41"/>
<path d="M170.914 117.447C169.737 117.178 168.574 116.793 167.756 116.151C166.938 115.51 166.531 114.568 166.995 113.777C166.761 114.178 166.648 114.639 166.669 115.103C166.691 115.567 166.846 116.015 167.116 116.393C167.821 117.299 168.835 117.917 169.965 118.128C170.203 118.202 170.458 118.201 170.696 118.126C170.909 118.032 170.915 117.755 170.668 117.719" fill="#2F2E41"/>
<path d="M185.533 148.094C185.431 148.153 185.334 148.219 185.242 148.293L175.188 145.163L174.622 142.672L170.744 143.032L171.316 147.539C171.362 147.903 171.526 148.242 171.781 148.506C172.037 148.769 172.372 148.943 172.735 149L184.569 150.878C184.741 151.296 185.037 151.652 185.417 151.898C185.797 152.144 186.243 152.268 186.695 152.255C187.148 152.242 187.585 152.092 187.95 151.824C188.315 151.557 188.59 151.185 188.738 150.758C188.886 150.331 188.9 149.869 188.778 149.434C188.656 148.998 188.405 148.61 188.057 148.321C187.709 148.032 187.281 147.856 186.83 147.815C186.379 147.775 185.927 147.872 185.533 148.094Z" fill="#A0616A"/>
<path d="M170.329 134.566C170.329 134.566 171.237 131.975 173.969 132.21C176.7 132.446 175.214 142.833 175.214 142.833L169.904 150.04L170.329 134.566Z" fill="#2F2E41"/>
<path d="M200.669 199.155L198.77 195.099L201.705 193.73L203.604 197.786V197.786C203.785 198.174 203.804 198.619 203.658 199.021C203.511 199.424 203.21 199.752 202.821 199.934C202.432 200.115 201.987 200.135 201.583 199.989C201.18 199.843 200.851 199.543 200.669 199.155Z" fill="#FFB9B9"/>
<path d="M194.134 190.475C195.235 190.475 196.128 189.584 196.128 188.485C196.128 187.386 195.235 186.496 194.134 186.496C193.033 186.496 192.141 187.386 192.141 188.485C192.141 189.584 193.033 190.475 194.134 190.475Z" fill="#FFB9B9"/>
<path d="M209.402 199.965L207.503 195.909L210.438 194.54L212.337 198.596C212.519 198.985 212.539 199.429 212.393 199.832C212.246 200.235 211.945 200.564 211.556 200.745C211.167 200.927 210.721 200.947 210.317 200.8C209.913 200.654 209.584 200.354 209.402 199.965Z" fill="#FFB9B9"/>
<path d="M194.14 192.512C194.245 191.396 194.789 190.367 195.654 189.651C196.518 188.935 197.632 188.591 198.75 188.693L212.103 189.932C212.576 189.977 213.012 190.206 213.315 190.571C213.618 190.936 213.764 191.405 213.72 191.877L213.579 193.394C213.451 194.752 212.788 196.004 211.736 196.876C210.684 197.747 209.329 198.166 207.968 198.042L197.966 197.113C196.847 197.008 195.817 196.465 195.099 195.602C194.382 194.74 194.037 193.628 194.14 192.512Z" fill="#3F3D56"/>
<path d="M196.615 199.279L197.031 194.821L200.256 195.121L199.841 199.578C199.801 200.005 199.593 200.399 199.262 200.672C198.932 200.946 198.506 201.077 198.078 201.038C197.651 200.998 197.256 200.791 196.982 200.461C196.708 200.131 196.576 199.706 196.615 199.279Z" fill="#3F3D56"/>
<path d="M205.975 200.148L206.391 195.69L209.616 195.989L209.201 200.447C209.161 200.874 208.953 201.267 208.622 201.541C208.292 201.815 207.866 201.946 207.438 201.906C207.011 201.867 206.616 201.659 206.342 201.329C206.068 201 205.936 200.575 205.975 200.148Z" fill="#3F3D56"/>
<path d="M220.742 183.729C220.924 183.54 221.142 183.389 221.382 183.285C221.623 183.18 221.881 183.124 222.144 183.119C222.406 183.115 222.666 183.162 222.91 183.258C223.154 183.354 223.377 183.497 223.565 183.68C223.754 183.862 223.904 184.079 224.008 184.319C224.112 184.56 224.168 184.818 224.172 185.08C224.176 185.341 224.128 185.601 224.031 185.845C223.934 186.088 223.79 186.31 223.607 186.497L219.966 190.249L217.102 187.481L220.742 183.729Z" fill="#FFB9B9"/>
<path d="M212.138 190.987L215.055 187.981C215.764 187.252 216.734 186.833 217.752 186.817C218.77 186.801 219.752 187.188 220.484 187.894L221.24 188.624C222.111 189.468 222.611 190.622 222.631 191.834C222.65 193.045 222.187 194.214 221.344 195.085L218.941 197.562C218.676 197.835 218.312 197.992 217.931 197.998C217.55 198.004 217.182 197.859 216.908 197.595L212.171 193.016C211.897 192.751 211.74 192.388 211.734 192.008C211.728 191.628 211.874 191.26 212.138 190.987Z" fill="#3F3D56"/>
<path d="M221.176 183.282C221.301 183.152 221.451 183.049 221.616 182.978C221.781 182.907 221.959 182.868 222.138 182.865C222.318 182.863 222.497 182.895 222.665 182.961C222.832 183.027 222.985 183.126 223.114 183.251C223.243 183.375 223.347 183.525 223.418 183.69C223.49 183.854 223.528 184.032 223.531 184.211C223.534 184.391 223.501 184.569 223.435 184.736C223.369 184.903 223.27 185.056 223.145 185.185L219.071 189.384L217.102 187.48L221.176 183.282Z" fill="#3F3D56"/>
<path d="M215.238 190.381L220.43 195.399C220.808 195.766 221.025 196.269 221.033 196.795C221.041 197.322 220.839 197.831 220.472 198.209C220.104 198.588 219.602 198.805 219.074 198.814C218.546 198.823 218.036 198.623 217.656 198.258L212.465 193.24L215.238 190.381Z" fill="#3F3D56"/>
<path d="M220.702 198.382C221.025 198.049 221.137 197.634 220.951 197.454C220.766 197.275 220.354 197.4 220.03 197.733C219.707 198.066 219.596 198.481 219.781 198.66C219.966 198.84 220.379 198.715 220.702 198.382Z" fill="#FFB9B9"/>
<path d="M212.699 195.296H213.761V189.361H212.699V195.296Z" fill="#2F2E41"/>
<path d="M274.407 170.124H271.361L269.912 158.397H274.408L274.407 170.124Z" fill="#FFB8B8"/>
<path d="M275.184 173.072L265.361 173.072V172.948C265.361 171.936 265.764 170.965 266.481 170.25C267.198 169.534 268.171 169.132 269.185 169.132H269.185L275.184 169.132L275.184 173.072Z" fill="#2F2E41"/>
<path d="M306.341 139.509L306.929 142.492L295.681 146.177L294.812 141.774L306.341 139.509Z" fill="#FFB8B8"/>
<path d="M309.088 138.179L310.985 147.798L310.863 147.822C309.869 148.018 308.837 147.811 307.995 147.247C307.153 146.683 306.57 145.808 306.374 144.815L306.374 144.815L305.215 138.94L309.088 138.179Z" fill="#2F2E41"/>
<path d="M271.15 134.112C271.15 134.112 279.923 143.098 283.386 147.246C286.849 151.394 288.926 148.398 288.926 148.398L297.78 146.031L302.779 144.481C302.779 144.481 301.855 140.103 301.624 140.333C301.393 140.564 287.841 141.815 287.841 141.815C287.841 141.815 284.309 137.568 284.078 134.803C283.847 132.038 277.845 128.812 277.845 128.812L271.15 134.112Z" fill="#2F2E41"/>
<path d="M272.766 133.881C272.766 133.881 270.919 141.716 268.261 143.968C265.604 146.22 266.994 148.168 266.994 148.168L270.688 164.067L275.305 163.837C275.305 163.837 273.66 150.868 273.429 149.255C273.198 147.642 278.999 140.103 278.999 140.103L272.766 133.881Z" fill="#2F2E41"/>
<path d="M257.559 122.834C259.727 122.834 261.484 121.08 261.484 118.917C261.484 116.753 259.727 115 257.559 115C255.392 115 253.635 116.753 253.635 118.917C253.635 121.08 255.392 122.834 257.559 122.834Z" fill="#FFB8B8"/>
<path d="M266.07 130.195C266.763 130.195 268.841 134.112 268.841 134.112C268.841 134.112 273.458 135.494 274.151 134.342C274.843 133.19 276.69 131.347 278.307 130.655C279.923 129.964 279.23 129.273 278.307 128.582C277.383 127.89 274.382 126.047 271.611 122.821C268.841 119.595 264.454 118.904 263.993 118.904C263.531 118.904 262.377 123.512 262.377 123.512C261.684 124.895 265.378 130.195 266.07 130.195Z" fill="#FFB9B9"/>
<path d="M255.967 117.094C256.769 117.467 257.702 119.42 258.828 118.57C258.923 118.482 259.024 118.4 259.131 118.325C259.291 118.264 259.467 118.256 259.632 118.303C259.796 118.35 259.941 118.449 260.045 118.586C260.273 118.841 260.408 119.167 260.627 119.429C260.725 119.57 260.864 119.677 261.025 119.736C261.186 119.795 261.361 119.802 261.527 119.758L262.065 118.592C262.205 118.317 262.312 118.026 262.384 117.727C262.439 117.324 262.401 116.914 262.273 116.528C262.145 116.142 261.93 115.79 261.644 115.5C261.069 114.925 260.409 114.443 259.686 114.069C259.209 113.755 258.684 113.52 258.131 113.374C257.854 113.303 257.564 113.299 257.285 113.363C257.006 113.427 256.747 113.556 256.528 113.74C256.383 113.913 256.226 114.075 256.057 114.225C255.751 114.372 255.428 114.481 255.096 114.549C254.476 114.786 254.114 115.416 253.802 116C253.639 116.255 253.538 116.545 253.507 116.846C253.478 118.215 255.249 116.76 255.967 117.094Z" fill="#2F2E41"/>
<path d="M264.57 173.263C270.954 173.036 281.078 173.261 281.179 173.263L281.321 173.266L281.388 173.142C281.403 173.113 282.952 170.301 285.064 170.724L285.155 170.272C282.957 169.833 281.399 172.213 281.052 172.799C279.814 172.773 270.544 172.589 264.554 172.802C258.382 173.023 257.397 170.892 257.388 170.871L256.96 171.044C256.998 171.14 257.925 173.279 263.678 173.279C263.964 173.279 264.261 173.274 264.57 173.263Z" fill="#2F2E41"/>
<path d="M263.706 173.724H263.571C263.098 173.724 262.715 174.106 262.715 174.578V174.713C262.715 175.185 263.098 175.567 263.571 175.567H263.706C264.179 175.567 264.562 175.185 264.562 174.713V174.578C264.562 174.106 264.179 173.724 263.706 173.724Z" fill="#2F2E41"/>
<path d="M279.501 173.724H279.636C279.863 173.724 280.081 173.814 280.241 173.974C280.402 174.134 280.492 174.351 280.492 174.578V174.713C280.492 174.94 280.402 175.157 280.241 175.317C280.081 175.477 279.863 175.567 279.636 175.567H279.501C279.274 175.567 279.056 175.477 278.896 175.317C278.735 175.157 278.645 174.94 278.645 174.713V174.578C278.645 174.351 278.735 174.134 278.896 173.974C279.056 173.814 279.274 173.724 279.501 173.724Z" fill="#2F2E41"/>
<path d="M264.621 138.569C264.699 138.542 264.779 138.521 264.86 138.507L267.84 131.773L266.785 130.327L268.763 128.453L270.88 130.831C271.051 131.023 271.155 131.265 271.176 131.521C271.198 131.777 271.135 132.033 270.998 132.251L266.536 139.345C266.677 139.628 266.729 139.947 266.684 140.261C266.639 140.574 266.499 140.866 266.283 141.098C266.068 141.33 265.787 141.491 265.477 141.56C265.168 141.629 264.845 141.602 264.551 141.483C264.257 141.364 264.007 141.158 263.833 140.894C263.659 140.629 263.57 140.318 263.577 140.002C263.585 139.685 263.689 139.379 263.875 139.123C264.062 138.867 264.322 138.673 264.621 138.569Z" fill="#FFB8B8"/>
<path d="M271.15 128.812C271.15 129.042 268.379 132.268 267.595 131.96C266.811 131.652 266.532 130.655 265.35 129.627C264.167 128.598 263.069 123.051 263.069 123.051C263.069 123.051 271.15 128.582 271.15 128.812Z" fill="#FFB9B9"/>
</g>
<defs>
<clipPath id="clip0">
<rect width="325" height="208" fill="white"/>
</clipPath>
</defs>
</svg>
