<svg width="221" height="240" viewBox="0 0 221 240" fill="none" xmlns="http://www.w3.org/2000/svg">
<g clip-path="url(#clip0)">
<path d="M221 216.117C221 223.401 171.527 240 110.5 240C49.4725 240 0 223.401 0 216.117C0 208.832 49.4725 213.621 110.5 213.621C171.527 213.621 221 208.832 221 216.117Z" fill="#3F3D56"/>
<path opacity="0.1" d="M221 216.117C221 223.401 171.527 240 110.5 240C49.4725 240 0 223.401 0 216.117C0 208.832 49.4725 213.621 110.5 213.621C171.527 213.621 221 208.832 221 216.117Z" fill="black"/>
<path d="M31.4692 119.158C34.0367 119.158 36.118 117.083 36.118 114.523C36.118 111.964 34.0367 109.889 31.4692 109.889C28.9017 109.889 26.8203 111.964 26.8203 114.523C26.8203 117.083 28.9017 119.158 31.4692 119.158Z" fill="#FFB9B9"/>
<path d="M51.8527 157.3C54.4202 157.3 56.5016 155.225 56.5016 152.666C56.5016 150.106 54.4202 148.032 51.8527 148.032C49.2852 148.032 47.2039 150.106 47.2039 152.666C47.2039 155.225 49.2852 157.3 51.8527 157.3Z" fill="#FFB9B9"/>
<path d="M36.1181 147.675C38.6856 147.675 40.767 145.6 40.767 143.041C40.767 140.481 38.6856 138.407 36.1181 138.407C33.5506 138.407 31.4692 140.481 31.4692 143.041C31.4692 145.6 33.5506 147.675 36.1181 147.675Z" fill="#FFB9B9"/>
<path d="M37.601 208.817C37.5189 208.683 35.5839 205.462 34.913 198.774C34.2977 192.639 34.6933 182.296 40.0742 167.869C50.268 140.539 37.725 118.487 37.5968 118.267L38.2156 117.909C38.2481 117.965 41.4847 123.587 43.3967 132.54C45.923 144.41 45.0031 156.751 40.7447 168.118C30.5683 195.402 38.1339 208.318 38.2114 208.445L37.601 208.817Z" fill="#CFCCE0"/>
<path d="M33.6149 117.019C32.6247 117.019 31.6567 116.726 30.8334 116.178C30.0101 115.629 29.3684 114.85 28.9895 113.938C28.6106 113.026 28.5114 112.023 28.7046 111.055C28.8978 110.086 29.3746 109.197 30.0748 108.499C30.7749 107.801 31.667 107.326 32.6382 107.133C33.6093 106.941 34.616 107.04 35.5308 107.417C36.4456 107.795 37.2275 108.435 37.7776 109.256C38.3277 110.076 38.6214 111.041 38.6214 112.028C38.6199 113.351 38.0919 114.62 37.1533 115.555C36.2148 116.491 34.9422 117.017 33.6149 117.019ZM33.6149 107.751C32.7661 107.751 31.9365 108.001 31.2308 108.471C30.5251 108.941 29.9751 109.61 29.6503 110.391C29.3255 111.173 29.2405 112.033 29.4061 112.863C29.5716 113.692 29.9804 114.455 30.5805 115.053C31.1806 115.651 31.9453 116.059 32.7777 116.224C33.6101 116.389 34.4729 116.304 35.2571 115.98C36.0412 115.656 36.7114 115.108 37.1829 114.405C37.6545 113.701 37.9061 112.874 37.9061 112.028C37.9048 110.894 37.4523 109.807 36.6478 109.005C35.8433 108.203 34.7526 107.752 33.6149 107.751Z" fill="#CFCCE0"/>
<path d="M48.2768 133.773C50.8443 133.773 52.9257 131.698 52.9257 129.138C52.9257 126.579 50.8443 124.504 48.2768 124.504C45.7093 124.504 43.6279 126.579 43.6279 129.138C43.6279 131.698 45.7093 133.773 48.2768 133.773Z" fill="#CFCCE0"/>
<path d="M38.2638 145.536C37.2736 145.536 36.3056 145.244 35.4823 144.695C34.659 144.147 34.0173 143.367 33.6384 142.456C33.2595 141.544 33.1603 140.54 33.3535 139.572C33.5467 138.604 34.0235 137.715 34.7237 137.017C35.4239 136.319 36.3159 135.844 37.2871 135.651C38.2583 135.459 39.2649 135.557 40.1797 135.935C41.0945 136.313 41.8764 136.952 42.4265 137.773C42.9767 138.594 43.2703 139.559 43.2703 140.546C43.2688 141.869 42.7409 143.137 41.8023 144.073C40.8637 145.009 39.5911 145.535 38.2638 145.536ZM38.2638 136.268C37.4151 136.268 36.5854 136.519 35.8797 136.989C35.174 137.459 34.624 138.127 34.2992 138.909C33.9744 139.69 33.8894 140.55 34.055 141.38C34.2206 142.21 34.6293 142.972 35.2294 143.57C35.8296 144.169 36.5942 144.576 37.4266 144.741C38.259 144.906 39.1219 144.821 39.906 144.498C40.6901 144.174 41.3603 143.626 41.8318 142.922C42.3034 142.219 42.5551 141.392 42.5551 140.546C42.5538 139.412 42.1013 138.324 41.2968 137.522C40.4923 136.72 39.4015 136.269 38.2638 136.268V136.268Z" fill="#CFCCE0"/>
<path d="M50.4222 155.161C49.4321 155.161 48.4641 154.868 47.6408 154.32C46.8175 153.771 46.1758 152.992 45.7969 152.08C45.4179 151.168 45.3188 150.165 45.512 149.197C45.7051 148.229 46.182 147.339 46.8821 146.641C47.5823 145.943 48.4744 145.468 49.4455 145.276C50.4167 145.083 51.4233 145.182 52.3381 145.56C53.253 145.937 54.0349 146.577 54.585 147.398C55.1351 148.218 55.4287 149.183 55.4287 150.17C55.4272 151.493 54.8993 152.762 53.9607 153.697C53.0221 154.633 51.7496 155.159 50.4222 155.161ZM50.4222 145.893C49.5735 145.893 48.7438 146.144 48.0382 146.614C47.3325 147.084 46.7824 147.752 46.4576 148.533C46.1328 149.315 46.0479 150.175 46.2134 151.005C46.379 151.835 46.7877 152.597 47.3879 153.195C47.988 153.793 48.7526 154.201 49.5851 154.366C50.4175 154.531 51.2803 154.446 52.0644 154.122C52.8486 153.798 53.5188 153.25 53.9903 152.547C54.4618 151.843 54.7135 151.016 54.7135 150.17C54.7122 149.036 54.2597 147.949 53.4552 147.147C52.6507 146.345 51.56 145.894 50.4222 145.893Z" fill="#CFCCE0"/>
<path d="M34.6877 169.776C37.2552 169.776 39.3366 167.701 39.3366 165.142C39.3366 162.583 37.2552 160.508 34.6877 160.508C32.1202 160.508 30.0388 162.583 30.0388 165.142C30.0388 167.701 32.1202 169.776 34.6877 169.776Z" fill="#CFCCE0"/>
<path d="M40.4093 208.988C40.4093 208.988 35.7605 197.581 49.7071 189.025L40.4093 208.988Z" fill="#CFCCE0"/>
<path d="M34.6919 208.78C34.6919 208.78 32.5762 196.65 16.2007 196.754L34.6919 208.78Z" fill="#CFCCE0"/>
<path d="M202.525 213.265H123.397C123.397 213.265 121.793 189.815 131.283 189.549C140.773 189.282 139.703 199.941 151.6 185.285C163.496 170.629 177.931 171.428 179.802 180.089C181.674 188.749 176.194 195.678 186.218 193.546C196.243 191.414 210.679 197.01 202.525 213.265Z" fill="#FFB9B9"/>
<path d="M161.625 213.27L161.358 213.26C161.981 197.821 165.225 187.901 167.836 182.298C170.672 176.214 173.404 173.751 173.432 173.727L173.609 173.926C173.582 173.95 170.882 176.388 168.069 182.431C165.472 188.01 162.246 197.889 161.625 213.27Z" fill="#F2F2F2"/>
<path d="M190.264 213.302L190.007 213.228C193.098 202.655 200.374 195.979 200.448 195.913L200.627 196.11C200.555 196.176 193.332 202.804 190.264 213.302Z" fill="#F2F2F2"/>
<path d="M135.86 213.283L135.595 213.247C136.643 205.709 134.75 199.862 132.976 196.283C131.056 192.409 128.865 190.292 128.843 190.271L129.028 190.079C129.05 190.1 131.275 192.249 133.216 196.165C135.006 199.777 136.918 205.679 135.86 213.283Z" fill="#F2F2F2"/>
<path d="M213.264 213.622H114.862L114.839 213.289C114.782 212.463 113.527 192.965 119.865 186.008C121.282 184.453 122.988 183.637 124.937 183.582C129.068 183.465 131.665 185.007 133.759 186.245C137.705 188.579 140.313 190.121 149.792 178.442C160.062 165.789 171.143 163.067 177.512 164.581C181.628 165.559 184.465 168.323 185.295 172.165C186.081 175.804 185.831 179.222 185.629 181.969C185.414 184.908 185.244 187.229 186.455 188.281C187.466 189.159 189.483 189.239 192.804 188.532C199.559 187.096 208.983 188.325 213.714 194.418C216.259 197.695 218.264 203.654 213.363 213.424L213.264 213.622ZM115.533 212.909H212.822C216.474 205.523 216.588 199.283 213.148 194.854C208.809 189.265 199.704 187.794 192.953 189.23C189.346 189.997 187.196 189.87 185.985 188.819C184.505 187.533 184.686 185.054 184.916 181.917C185.114 179.216 185.36 175.854 184.596 172.315C183.826 168.753 181.184 166.186 177.347 165.274C171.18 163.808 160.409 166.495 150.348 178.89C140.48 191.048 137.507 189.291 133.394 186.859C131.274 185.605 128.867 184.184 124.958 184.295C123.21 184.344 121.675 185.081 120.394 186.487C114.698 192.74 115.394 210.273 115.533 212.909Z" fill="#CFCCE0"/>
<path d="M110.5 229.306C171.527 229.306 221 223.401 221 216.117C221 208.832 171.527 202.927 110.5 202.927C49.4725 202.927 0 208.832 0 216.117C0 223.401 49.4725 229.306 110.5 229.306Z" fill="#3F3D56"/>
<path d="M112.93 43.5777C112.93 43.5777 107.405 41.611 103.854 49.4777C100.303 57.3444 94.7786 65.9978 94.7786 65.9978L97.9353 66.7845C97.9353 66.7845 98.7245 61.2778 100.697 60.4911L99.9082 67.5711C99.9082 67.5711 123.584 75.8312 134.238 66.7845L133.843 64.0311C133.843 64.0311 135.421 64.4245 135.421 66.7845L136.605 65.6045C136.605 65.6045 135.421 63.2445 131.87 60.0978C129.539 58.0324 128.738 54.1031 128.463 51.6465C128.257 49.5951 127.433 47.6538 126.101 46.0771C123.741 43.3507 119.44 40.4529 112.93 43.5777Z" fill="#2F2E41"/>
<path d="M107.103 74.4208L101.381 67.2915L97.0897 52.6763L113.54 35.2094C113.54 35.2094 117.116 21.6636 113.897 22.3766C110.679 23.0895 109.964 33.0706 109.964 33.0706L89.2224 49.1116C89.2224 49.1116 91.3681 71.5691 97.4473 79.4114L102.096 94.0265L107.103 74.4208Z" fill="#FFB9B9"/>
<path d="M122.837 74.4208L128.559 67.2915L132.85 52.6763L116.401 35.2094C116.401 35.2094 112.825 21.6636 116.043 22.3766C119.261 23.0895 119.977 33.0706 119.977 33.0706L140.718 49.1116C140.718 49.1116 138.572 71.5691 132.493 79.4114L127.844 94.0265L122.837 74.4208Z" fill="#FFB9B9"/>
<path d="M114.97 68.361C120.105 68.361 124.268 64.2115 124.268 59.0929C124.268 53.9742 120.105 49.8247 114.97 49.8247C109.835 49.8247 105.672 53.9742 105.672 59.0929C105.672 64.2115 109.835 68.361 114.97 68.361Z" fill="#FFB9B9"/>
<path d="M110.679 64.0833C110.679 64.0833 111.036 71.5691 108.891 74.0643C106.745 76.5596 104.6 89.3924 114.97 89.7489C125.341 90.1054 124.268 79.0549 124.268 79.0549L122.122 72.9949C122.122 72.9949 118.904 68.3609 119.977 64.0833H110.679Z" fill="#FFB9B9"/>
<path d="M101.024 147.14L108.712 149.457C108.712 149.457 114.97 145.714 114.97 149.279C114.97 152.844 112.824 157.478 113.54 160.686C114.255 163.894 115.685 171.736 113.54 171.736C111.394 171.736 107.103 157.834 107.103 157.834L99.9507 153.913L101.024 147.14Z" fill="#FFB9B9"/>
<path d="M110.679 197.045L107.818 208.096C107.818 208.096 105.315 211.304 107.818 212.73C108.992 213.399 109.852 214.775 110.434 216.046C110.941 217.191 111.789 218.153 112.864 218.801C113.938 219.449 115.187 219.752 116.44 219.668C117.66 219.567 118.688 219.086 118.938 217.836C119.008 217.444 118.994 217.041 118.899 216.655C118.803 216.268 118.628 215.905 118.385 215.59C115.747 212.036 115.149 209.7 115.149 209.7L116.222 197.224L110.679 197.045Z" fill="#FFB9B9"/>
<path d="M103.754 60.7386C103.754 60.7386 106.911 56.4119 109.673 55.6253C112.435 54.8386 112.83 50.9052 112.83 50.9052C112.83 50.9052 119.932 58.7719 124.273 59.1653C128.613 59.5586 124.668 49.7252 124.668 49.7252L116.776 47.7585L109.278 48.5452L103.36 52.4786L103.754 60.7386Z" fill="#2F2E41"/>
<path d="M97.8051 120.049L96.3747 122.9C96.3747 122.9 61.687 133.951 64.5478 144.288C67.4087 154.626 83.5009 151.774 83.5009 151.774L101.381 154.982L103.169 147.14L90.653 143.932L112.109 136.09L112.825 172.449L109.964 198.471L117.116 199.184C117.116 199.184 124.983 175.301 123.91 165.32C123.91 165.32 137.142 124.683 129.632 118.623C122.122 112.563 97.8051 120.049 97.8051 120.049Z" fill="#2F2E41"/>
<path d="M115.389 79.0601L109.809 72.3378L106.03 74.0646L102.096 86.5409C102.096 86.5409 98.8777 92.6009 102.811 99.0173C102.811 99.0173 103.527 103.295 102.454 104.364C101.381 105.434 101.023 112.207 101.023 112.207L96.3745 121.118C96.3745 121.118 122.837 125.752 130.705 119.336C130.705 119.336 126.576 104.164 129.08 99.5301C131.583 94.896 131.94 87.7919 129.08 84.5837C126.219 81.3755 123.195 72.9952 123.195 72.9952L121.463 71.8911L115.389 79.0601Z" fill="#CFCCE0"/>
<path d="M136.251 25.8385H132.821V22.4197H132.509V25.8385H129.08V26.1491H132.509V29.568H132.821V26.1491H136.251V25.8385Z" fill="#CFCCE0"/>
<path d="M103.655 18.6903H100.225V15.2715H99.9134V18.6903H96.4836V19.0009H99.9134V22.4198H100.225V19.0009H103.655V18.6903Z" fill="#CFCCE0"/>
<path d="M119.301 3.41882H115.871V0H115.559V3.41882H112.13V3.72946H115.559V7.14828H115.871V3.72946H119.301V3.41882Z" fill="#CFCCE0"/>
</g>
<defs>
<clipPath id="clip0">
<rect width="221" height="240" fill="white"/>
</clipPath>
</defs>
</svg>
